<?xml version="1.0" standalone="no"?>
<!DOCTYPE svg PUBLIC "-//W3C//DTD SVG 20010904//EN"
 "http://www.w3.org/TR/2001/REC-SVG-20010904/DTD/svg10.dtd">
<svg version="1.0" xmlns="http://www.w3.org/2000/svg"
 width="1200.000000pt" height="1200.000000pt" viewBox="0 0 1200.000000 1200.000000"
 preserveAspectRatio="xMidYMid meet">
<metadata>
Created by potrace 1.14, written by Peter Selinger 2001-2017
</metadata>
<g transform="translate(0.000000,1200.000000) scale(0.100000,-0.100000)"
fill="#000000" stroke="none">
<path d="M0 6000 l0 -6000 6000 0 6000 0 0 6000 0 6000 -6000 0 -6000 0 0
-6000z m3440 5630 c0 -5 -4 -10 -10 -10 -5 0 -10 5 -10 10 0 6 5 10 10 10 6 0
10 -4 10 -10z m-3095 -509 c7 -12 -12 -24 -25 -16 -11 7 -4 25 10 25 5 0 11
-4 15 -9z m11336 -264 c-13 -13 -26 -3 -16 12 3 6 11 8 17 5 6 -4 6 -10 -1
-17z m-9681 -808 c0 -5 -4 -9 -10 -9 -5 0 -10 7 -10 16 0 8 5 12 10 9 6 -3 10
-10 10 -16z m3844 -199 c130 -40 209 -47 274 -26 62 21 85 13 187 -64 118 -89
321 -270 303 -270 -34 0 -138 79 -137 104 1 14 -76 53 -97 50 -14 -2 -27 9
-47 41 -27 46 -134 125 -166 125 -14 -1 -14 -2 2 -14 25 -19 21 -30 -5 -12
-29 20 -39 20 -31 0 5 -14 3 -15 -15 -5 -13 7 -46 9 -90 5 -53 -5 -75 -3 -100
10 -35 18 -46 20 -38 7 3 -5 -22 0 -57 11 -80 25 -225 42 -252 29 -11 -5 -51
-17 -90 -27 -76 -19 -248 -85 -335 -129 -53 -26 -187 -106 -240 -143 -63 -43
7 21 89 82 128 95 375 213 505 241 111 24 231 19 340 -15z m252 -261 c20 -21
35 -41 33 -47 -2 -5 -32 20 -67 55 -44 46 -54 59 -32 47 17 -10 47 -35 66 -55z
m58 -15 c5 -14 4 -15 -9 -4 -17 14 -19 20 -6 20 5 0 12 -7 15 -16z m307 0 c17
-8 29 -18 26 -20 -3 -3 -20 4 -38 15 -40 25 -31 28 12 5z m-1621 -39 c-13 -14
-30 -25 -39 -25 -9 0 0 11 19 25 45 31 49 31 20 0z m-3090 -20 c0 -8 -4 -15
-9 -15 -13 0 -22 16 -14 24 11 11 23 6 23 -9z m3040 -19 c0 -1 -22 -17 -50
-34 -61 -38 -65 -35 -8 7 38 28 58 37 58 27z m2695 -16 c-3 -5 -10 -10 -16
-10 -5 0 -9 5 -9 10 0 6 7 10 16 10 8 0 12 -4 9 -10z m-902 -11 c23 -13 166
-123 225 -175 29 -26 41 -50 73 -149 21 -66 36 -121 34 -124 -3 -2 -25 39 -51
92 -25 54 -48 97 -50 97 -3 0 -26 -17 -52 -37 -48 -40 -48 -36 4 37 24 34 30
50 24 66 -8 21 -205 166 -259 191 l-26 12 28 1 c16 0 38 -5 50 -11z m-686 -25
c49 -37 33 -42 -18 -5 -23 17 -36 31 -29 31 7 0 28 -12 47 -26z m679 -26 c22
-24 38 -48 32 -48 -2 0 -24 21 -48 46 -25 26 -36 42 -25 36 11 -6 29 -21 41
-34z m274 22 c63 -11 182 -29 263 -40 168 -23 281 -56 472 -138 138 -59 193
-89 239 -131 58 -53 150 -216 198 -351 29 -83 68 -329 75 -471 l6 -127 -27
-17 c-15 -10 -28 -16 -31 -14 -2 2 3 33 10 69 26 120 16 204 -51 430 -32 108
-127 316 -182 398 -13 19 -24 43 -25 54 -1 10 -9 18 -18 18 -10 0 -19 4 -21 8
-22 52 -434 222 -542 222 -47 1 -49 2 -32 15 24 18 6 20 -40 3 -26 -9 -48 -7
-140 16 -60 15 -142 30 -181 33 -53 4 -77 11 -89 24 -21 23 -25 23 116 -1z
m-2136 -74 c-80 -76 -107 -92 -60 -36 34 41 128 121 134 115 3 -3 -30 -38 -74
-79z m1186 33 c0 -12 -59 32 -59 44 -1 5 13 -1 29 -13 17 -12 30 -26 30 -31z
m655 -3 c11 -8 15 -16 8 -16 -7 0 -25 12 -40 26 -29 26 -6 20 32 -10z m-700 4
c10 -11 14 -20 8 -20 -5 0 -18 9 -28 20 -10 11 -14 20 -8 20 5 0 18 -9 28 -20z
m655 -15 c16 -19 1 -19 -24 0 -16 12 -17 15 -4 15 8 0 21 -7 28 -15z m-1944
-61 c-37 -36 -70 -63 -74 -60 -3 4 -1 11 5 17 19 19 128 108 132 108 3 1 -26
-29 -63 -65z m1264 51 c7 -8 8 -15 2 -15 -5 0 -15 7 -22 15 -7 8 -8 15 -2 15
5 0 15 -7 22 -15z m-24 -27 l29 -31 -32 22 c-35 23 -50 41 -35 41 4 0 21 -14
38 -32z m-6 -28 c14 -11 21 -20 15 -20 -5 0 -21 9 -35 20 -14 11 -20 20 -15
20 6 0 21 -9 35 -20z m-44 -21 c19 -22 19 -22 -3 -10 -24 12 -39 31 -25 31 5
0 17 -10 28 -21z m-30 -24 c10 -8 15 -14 9 -14 -5 0 -19 6 -29 14 -11 8 -15
15 -10 15 6 0 19 -7 30 -15z m-31 -15 c3 -6 -1 -7 -9 -4 -18 7 -21 14 -7 14 6
0 13 -4 16 -10z m-1222 -45 c-3 -13 4 -43 14 -67 27 -59 44 -111 38 -116 -2
-3 -9 6 -14 19 -5 13 -21 50 -35 83 -26 59 -32 87 -19 99 13 14 20 6 16 -18z
m77 -105 c-7 -71 -7 -72 -8 -20 -2 48 6 106 13 98 1 -2 -1 -37 -5 -78z m60 53
c-36 -114 -39 -119 -39 -88 -1 28 32 115 43 115 2 0 1 -12 -4 -27z m21 -85
c-9 -31 -9 -31 -10 -6 -1 30 11 67 16 51 2 -6 0 -26 -6 -45z m2223 36 c5 -14
4 -15 -9 -4 -17 14 -19 20 -6 20 5 0 12 -7 15 -16z m-2384 -23 c0 -5 -12 -17
-27 -26 -16 -10 -38 -25 -50 -33 -42 -26 -24 6 20 37 44 32 57 37 57 22z
m2383 -31 c26 -41 7 -32 -24 12 -12 17 -17 29 -10 27 7 -3 22 -20 34 -39z
m-27 -22 c8 -16 13 -32 11 -34 -4 -5 -47 61 -47 72 0 13 22 -10 36 -38z
m-2489 -102 c0 -25 6 -52 13 -61 7 -8 10 -18 7 -21 -8 -8 -37 51 -37 75 0 18
9 51 14 51 2 0 3 -20 3 -44z m2648 -91 c0 -30 -6 -50 -19 -62 -18 -17 -18 -17
-12 22 3 22 6 56 6 75 0 27 3 32 13 22 6 -7 12 -33 12 -57z m-2478 3 c-3 -8
-6 -5 -6 6 -1 11 2 17 5 13 3 -3 4 -12 1 -19z m1343 -73 c-24 -31 -47 -58 -52
-61 -23 -15 -12 6 34 64 27 35 52 61 55 58 3 -3 -13 -30 -37 -61z m-1175 -35
c-19 -28 -37 -67 -41 -86 -3 -19 -11 -37 -17 -41 -26 -16 19 99 57 145 40 46
40 40 1 -18z m833 18 c22 -22 12 -29 -18 -13 -16 9 -30 18 -30 20 0 10 36 5
48 -7z m-919 -78 c1 -13 0 -13 -9 0 -5 8 -9 24 -9 35 l0 20 9 -20 c5 -11 9
-27 9 -35z m951 30 c8 -5 11 -10 5 -10 -5 0 -17 5 -25 10 -8 5 -10 10 -5 10 6
0 17 -5 25 -10z m438 -62 c-19 -24 -53 -70 -76 -102 -36 -51 -41 -65 -36 -93
8 -41 -1 -42 -21 -3 -14 27 -14 33 1 63 15 28 150 177 162 177 2 0 -11 -19
-30 -42z m-603 -258 c-27 -12 -43 -12 -25 0 8 5 22 9 30 9 10 0 8 -3 -5 -9z
m258 -29 c17 -3 5 -21 -18 -27 -14 -3 -25 -10 -25 -15 0 -5 7 -5 17 -2 11 4
14 3 9 -6 -10 -15 33 -50 54 -44 9 4 7 -1 -5 -10 -12 -10 -15 -16 -7 -17 7 0
10 -4 7 -10 -9 -15 -25 -12 -25 5 0 8 -4 15 -9 15 -11 0 -2 -38 11 -46 5 -3
15 -1 21 5 10 8 13 2 14 -24 1 -37 -14 -56 -27 -35 -6 9 -20 6 -58 -15 -28
-15 -55 -24 -62 -20 -6 4 -18 1 -27 -7 -15 -11 -16 -11 -10 6 5 14 3 17 -8 12
-10 -3 -20 4 -29 22 -8 15 -23 36 -35 46 l-21 19 27 17 c25 16 30 16 46 2 12
-11 17 -12 17 -2 0 7 7 10 15 6 14 -5 19 5 16 32 -1 6 3 12 9 12 17 0 11 30
-7 38 -37 15 -23 29 25 26 26 -2 41 -1 35 2 -7 3 -13 10 -13 14 0 7 19 8 63 1z
m-211 -13 c-8 -8 -17 -8 -34 0 -22 10 -21 11 12 11 26 1 31 -2 22 -11z m-77
-28 c3 -6 -1 -7 -9 -4 -18 7 -21 14 -7 14 6 0 13 -4 16 -10z m129 -15 c-10 -7
-22 -11 -27 -8 -12 7 0 19 23 20 21 2 21 1 4 -12z m196 1 c0 -2 -7 -6 -15 -10
-8 -3 -15 -1 -15 4 0 6 7 10 15 10 8 0 15 -2 15 -4z m80 -21 c13 -14 21 -25
18 -25 -2 0 -15 11 -28 25 -13 14 -21 25 -18 25 2 0 15 -11 28 -25z m-360 5
c0 -5 -9 -10 -20 -10 -11 0 -20 -4 -20 -10 0 -5 5 -10 10 -10 6 0 10 -4 10
-10 0 -6 -9 -6 -22 -1 -13 5 -22 14 -20 20 1 6 -2 11 -8 11 -5 0 -10 5 -10 10
0 6 18 10 40 10 22 0 40 -4 40 -10z m100 -35 c0 -5 -5 -3 -10 5 -5 8 -10 20
-10 25 0 6 5 3 10 -5 5 -8 10 -19 10 -25z m-3265 -55 c3 -5 1 -10 -4 -10 -6 0
-11 5 -11 10 0 6 2 10 4 10 3 0 8 -4 11 -10z m3185 -41 c0 6 4 11 10 11 17 0
4 -45 -13 -48 -10 -2 -17 1 -17 6 0 6 -3 19 -7 29 -6 16 -5 16 10 4 11 -9 17
-10 17 -2z m235 -29 c3 -5 2 -10 -4 -10 -5 0 -13 5 -16 10 -3 6 -2 10 4 10 5
0 13 -4 16 -10z m375 -10 c12 -8 11 -10 -7 -10 -13 0 -23 5 -23 10 0 13 11 13
30 0z m-445 -26 c-9 -9 -19 -13 -23 -10 -3 4 0 11 8 16 24 15 33 11 15 -6z
m-91 -12 c2 -4 -4 -8 -15 -8 -10 0 -19 4 -19 8 0 4 6 8 14 8 8 0 17 -4 20 -8z
m2657 -65 c36 -24 79 -81 79 -104 0 -7 -27 14 -59 47 -32 33 -64 60 -70 60 -6
0 10 -19 35 -42 55 -51 40 -63 -22 -18 -24 17 -44 26 -44 19 0 -8 -4 -8 -15 1
-23 19 -18 -1 7 -27 26 -28 48 -31 23 -3 -24 26 -11 25 27 -2 l31 -21 -54 -28
c-60 -31 -88 -35 -108 -16 -11 10 -13 9 -8 -5 4 -10 4 -18 1 -18 -13 0 -64 45
-64 57 0 18 25 17 40 -2 15 -18 31 -10 23 10 -7 20 10 19 57 -5 50 -25 52 -19
5 10 -30 19 -47 22 -110 18 -79 -4 -80 4 0 23 27 7 77 25 110 40 74 34 75 34
116 6z m-3551 -57 c0 -5 -2 -10 -4 -10 -3 0 -8 5 -11 10 -3 6 -1 10 4 10 6 0
11 -4 11 -10z m-1818 -15 c0 -5 -5 -11 -11 -13 -6 -2 -11 4 -11 13 0 9 5 15
11 13 6 -2 11 -8 11 -13z m1796 2 c9 -10 -2 -13 -53 -15 -37 -2 -65 2 -65 7 0
20 103 27 118 8z m-70 -57 c43 -27 40 -31 -10 -13 -29 10 -60 13 -93 8 -28 -3
-59 -3 -70 1 -18 7 -18 8 1 15 40 16 138 10 172 -11z m-3953 1 c3 -5 1 -12 -5
-16 -5 -3 -10 1 -10 9 0 18 6 21 15 7z m7370 -16 c39 -32 24 -32 -23 0 -20 14
-30 25 -22 25 8 -1 29 -12 45 -25z m273 9 c34 -23 59 -82 66 -156 8 -79 -7
-98 -24 -31 -18 72 -51 143 -71 154 -23 12 -95 -3 -151 -32 -50 -26 -61 -18
-14 10 19 12 36 25 38 30 4 10 86 39 113 40 11 1 31 -6 43 -15z m-303 -28 c11
-8 16 -15 10 -16 -5 0 -23 12 -40 26 -31 26 -6 18 30 -10z m-50 4 c3 -6 -1 -7
-9 -4 -18 7 -21 14 -7 14 6 0 13 -4 16 -10z m-3455 -8 c25 -7 22 -8 -155 -28
-56 -7 -55 1 2 21 42 16 114 19 153 7z m368 -84 c38 -51 83 -105 98 -120 47
-43 242 -166 298 -186 58 -22 145 -38 111 -22 -18 9 -17 10 5 6 14 -3 48 -8
75 -12 41 -6 46 -9 25 -14 -19 -5 -10 -8 35 -13 39 -5 73 -3 95 4 40 13 62 28
56 38 -2 3 28 16 67 28 76 23 74 16 -8 -32 -75 -44 -149 -58 -265 -52 -140 8
-242 35 -332 86 -103 59 -176 127 -245 228 -59 86 -98 153 -89 153 2 0 36 -42
74 -92z m2976 -9 c39 -22 77 -47 84 -56 6 -9 12 -37 11 -62 l-1 -46 -17 50
c-21 60 -68 97 -86 67 -9 -17 -13 -16 -60 10 -50 27 -50 37 -1 18 36 -13 33
-4 -6 21 -26 16 -28 20 -10 16 32 -7 27 2 -10 19 -32 15 -32 15 -4 9 15 -3 60
-24 100 -46z m-3375 27 c-10 -9 -149 -14 -144 -5 4 5 38 9 77 9 39 0 69 -2 67
-4z m-129 -35 c0 -14 -28 -33 -40 -26 -5 3 -10 2 -10 -3 0 -5 18 -23 40 -41
22 -17 45 -41 51 -53 l11 -21 -28 20 c-16 11 -43 28 -61 37 -30 15 -34 15 -67
-5 -20 -12 -36 -23 -36 -26 0 -3 19 -23 43 -44 l42 -39 -60 36 c-33 19 -72 38
-88 41 -38 8 -42 20 -9 28 16 3 46 22 67 41 21 19 58 41 84 48 56 18 61 18 61
7z m3416 -47 c18 -14 18 -14 -6 -3 -31 14 -36 19 -24 19 6 0 19 -7 30 -16z
m-2679 -95 c56 -44 64 -61 16 -36 -30 16 -92 77 -78 77 4 0 32 -19 62 -41z
m853 -14 c-45 -46 -50 -50 -50 -38 0 7 81 83 89 83 3 0 -15 -20 -39 -45z
m2420 -60 c5 -32 6 -70 3 -84 -6 -23 -8 -21 -14 19 -9 54 -11 135 -4 128 3 -3
10 -31 15 -63z m-4333 5 c51 -23 136 -80 130 -87 -3 -2 -23 5 -46 16 -59 30
-62 26 -7 -10 62 -39 51 -51 -14 -15 -27 15 -50 25 -50 22 0 -3 14 -12 30 -21
17 -9 30 -20 30 -25 0 -6 -19 -1 -42 11 l-43 22 19 -22 c25 -28 15 -36 -15
-12 -13 10 -42 26 -64 36 -40 17 -40 17 -15 27 14 5 35 7 48 5 12 -2 22 0 22
5 0 5 9 6 20 3 11 -3 20 -4 20 -1 0 3 -15 9 -34 14 -26 8 -46 5 -87 -9 -63
-22 -112 -23 -154 -5 l-30 13 45 12 c25 6 68 18 95 25 68 19 93 19 142 -4z
m235 -22 c27 -17 53 -40 60 -51 10 -21 10 -21 -8 -5 -10 9 -35 23 -54 31 -19
9 -48 28 -65 42 -28 25 -29 26 -6 20 14 -4 47 -21 73 -37z m1698 32 c0 -11
-117 -110 -131 -110 -5 0 20 27 57 60 69 63 74 66 74 50z m-1353 -67 c65 -117
123 -320 95 -337 -5 -3 -12 24 -16 64 -7 76 -33 156 -90 268 -20 39 -34 72
-32 72 3 0 22 -30 43 -67z m356 42 c-3 -9 -8 -14 -10 -11 -3 3 -2 9 2 15 9 16
15 13 8 -4z m763 -10 c-11 -8 -25 -15 -30 -15 -6 1 0 7 14 15 32 19 40 18 16
0z m-742 -39 c-10 -20 -21 -36 -26 -36 -5 0 1 18 12 41 26 50 38 46 14 -5z
m-290 -22 c15 -31 25 -58 22 -61 -3 -4 -56 102 -56 113 0 14 11 -3 34 -52z
m3715 -225 c1 -68 -3 -101 -13 -115 -20 -26 -28 -14 -16 25 6 23 6 40 -2 54
-13 24 -6 286 8 308 10 16 21 -115 23 -272z m-4185 235 c47 -36 54 -51 19 -40
-23 7 -92 76 -76 76 5 0 31 -16 57 -36z m723 14 c-3 -8 -6 -5 -6 6 -1 11 2 17
5 13 3 -3 4 -12 1 -19z m700 6 c-3 -3 -12 -4 -19 -1 -8 3 -5 6 6 6 11 1 17 -2
13 -5z m-62 -14 c-16 -4 -48 -7 -70 -7 l-40 0 45 7 c25 4 56 7 70 7 22 1 21 0
-5 -7z m1380 -5 c146 -31 321 -101 356 -141 17 -20 32 -54 24 -54 -3 0 -30 20
-60 45 -31 25 -68 48 -83 51 -15 4 -57 22 -94 41 -56 27 -84 34 -157 40 -80 5
-166 -4 -230 -24 -14 -4 -14 -3 -1 6 24 17 -4 13 -67 -9 -31 -11 -52 -15 -46
-9 6 6 48 24 94 40 96 33 158 36 264 14z m-3109 -26 c74 -31 94 -46 78 -58 -5
-3 3 -18 19 -33 15 -15 27 -22 27 -16 0 6 8 4 18 -5 23 -21 48 -22 56 -2 6 17
36 21 36 5 0 -5 11 -10 24 -10 17 0 37 -15 66 -49 28 -33 51 -50 71 -53 16 -3
29 0 29 5 0 14 -67 122 -85 137 -8 7 -15 19 -15 28 0 41 121 -118 151 -200 22
-59 38 -198 22 -198 -5 0 -15 30 -22 66 -14 79 -40 146 -52 138 -5 -3 -7 -9
-4 -14 3 -5 -2 -10 -10 -12 -12 -2 -11 -12 10 -56 23 -49 24 -55 9 -77 -9 -14
-14 -40 -13 -62 3 -32 1 -38 -15 -35 -17 3 -17 2 1 -21 10 -14 21 -23 26 -20
4 2 7 0 7 -5 0 -6 11 -13 24 -16 24 -6 43 -47 31 -66 -4 -6 -1 -10 5 -10 6 0
9 -4 6 -9 -3 -4 3 -16 14 -26 11 -10 32 -57 47 -104 14 -47 29 -90 33 -96 11
-16 11 -134 0 -175 -5 -20 -19 -45 -30 -55 -28 -25 -45 -3 -59 76 -6 35 -20
116 -31 179 -11 63 -20 116 -20 118 0 2 -5 0 -11 -3 -6 -5 -9 -50 -7 -128 2
-75 -1 -124 -7 -127 -6 -3 -11 23 -13 68 -2 39 -7 72 -12 72 -6 0 -10 14 -10
30 0 17 -4 30 -9 30 -5 0 -12 12 -14 28 -2 15 -2 -10 1 -55 4 -60 2 -83 -7
-83 -6 0 -16 10 -21 23 -9 22 -9 22 -10 -3 -1 -34 -11 -70 -20 -70 -4 0 -10
48 -14 108 -3 59 -10 123 -15 142 -5 23 -6 1 -3 -63 5 -91 4 -98 -14 -103 -16
-4 -19 -12 -16 -46 3 -28 -2 -53 -18 -82 l-22 -41 23 27 c30 33 64 44 72 24 4
-11 1 -13 -10 -9 -11 4 -14 2 -9 -5 4 -7 3 -12 -2 -12 -5 0 -12 -9 -15 -20 -3
-11 -1 -18 4 -14 23 14 29 -10 9 -42 -11 -20 -20 -45 -20 -57 0 -31 -18 -9
-34 44 -9 29 -14 36 -15 21 -1 -12 5 -37 12 -55 7 -18 12 -44 11 -59 -2 -15 0
-27 4 -25 4 1 8 -2 9 -7 1 -5 6 -12 12 -16 15 -9 -32 -60 -55 -60 -12 0 -14 3
-6 13 8 9 0 11 -39 9 l-49 -4 0 -51 c0 -72 23 -149 55 -191 15 -20 29 -35 31
-33 2 1 -3 21 -10 42 -17 51 -27 155 -16 155 5 0 14 -19 20 -42 26 -104 33
-129 40 -133 12 -7 -1 -52 -21 -74 -10 -11 -19 -25 -19 -31 0 -5 -4 -10 -10
-10 -5 0 -10 5 -10 10 0 6 -4 10 -10 10 -5 0 -10 -9 -10 -20 0 -14 -7 -20 -22
-22 -37 -2 -42 -3 -57 -12 -8 -5 -16 -4 -21 4 -5 8 -9 7 -13 -4 -4 -9 -17 -16
-29 -16 -13 0 -40 -3 -60 -6 -28 -5 -38 -3 -38 7 0 10 -3 10 -12 1 -7 -7 -17
-12 -22 -12 -6 0 -5 5 2 12 15 15 16 92 2 83 -5 -3 -10 -14 -10 -23 0 -34 -25
-65 -53 -68 l-27 -3 20 26 c11 14 20 36 20 48 0 12 7 28 15 35 8 7 15 22 15
34 0 17 -5 14 -25 -16 -14 -21 -28 -51 -31 -67 -12 -57 -29 -63 -125 -46 -46
8 -88 15 -94 15 -5 0 -3 5 5 10 8 5 24 7 35 4 13 -3 28 2 39 15 11 12 24 21
30 21 6 0 25 17 42 37 17 20 33 32 37 26 3 -5 -13 -31 -37 -57 -40 -43 -45
-65 -11 -52 15 6 63 93 76 141 13 45 -10 135 -38 146 -12 4 -23 16 -26 26 -4
16 -5 15 -6 -2 0 -12 8 -38 19 -60 11 -22 20 -51 20 -65 0 -32 -33 -85 -62
-101 -13 -6 -33 -23 -45 -37 -20 -22 -28 -24 -67 -19 -39 6 -44 4 -50 -16 -5
-18 -8 -20 -16 -7 -5 8 -7 23 -4 34 4 13 2 17 -7 14 -9 -3 -14 -21 -13 -51 0
-49 -8 -59 -25 -29 -14 23 -14 -1 0 -31 9 -19 7 -31 -5 -56 -9 -17 -21 -31
-26 -31 -5 0 -12 -9 -15 -20 -14 -43 -108 -66 -139 -34 -20 19 -21 78 -2 93
17 15 73 11 66 -4 -3 -5 -8 -9 -12 -7 -23 7 -31 5 -40 -9 -6 -9 -8 -28 -4 -43
6 -25 10 -27 49 -24 34 2 45 9 64 37 18 26 22 42 17 68 -3 18 -2 46 4 61 6 15
13 46 15 68 l5 42 -36 -24 c-75 -51 -117 -45 -161 24 -34 54 -38 74 -17 91 19
16 52 -1 61 -30 7 -20 -4 -43 -12 -24 -8 23 -22 39 -29 32 -12 -12 21 -81 46
-94 19 -9 31 -9 59 3 45 19 81 52 81 75 0 10 17 24 48 37 79 33 87 34 113 11
l24 -21 -22 5 -23 5 23 -28 c26 -34 52 -40 44 -9 -3 12 0 22 9 26 8 3 14 14
14 24 0 10 5 19 11 19 5 0 7 5 4 10 -4 6 -10 8 -15 5 -5 -3 -17 7 -27 22 -10
15 -22 32 -28 36 -7 6 -6 10 1 13 8 3 8 18 3 47 -5 23 -12 57 -15 75 -7 35 -7
35 -116 51 -45 6 -95 24 -157 55 l-90 45 -58 -29 c-71 -37 -118 -47 -138 -30
-22 18 -18 30 9 30 13 0 29 6 35 14 10 12 8 13 -8 9 -13 -3 -23 0 -27 10 -4
11 -15 14 -39 10 -30 -5 -34 -3 -32 16 1 13 6 20 14 17 7 -3 13 -3 13 0 0 2
-12 9 -26 14 -18 7 -24 15 -20 26 3 9 3 21 -1 27 -13 21 -11 36 3 30 9 -3 14
2 15 18 0 20 3 18 14 -11 7 -19 14 -30 14 -25 9 88 48 191 95 244 33 37 106
83 122 77 10 -4 24 10 44 43 17 27 37 52 45 55 33 12 22 -17 -30 -85 -30 -39
-55 -75 -55 -81 0 -5 -4 -6 -10 -3 -5 3 -10 1 -10 -4 0 -28 37 -5 59 37 14 27
35 29 26 3 -5 -15 -1 -18 20 -13 20 3 24 9 20 23 -4 11 -2 19 5 19 8 0 9 -29
4 -99 -7 -102 3 -134 27 -89 9 16 9 23 0 26 -16 5 -14 47 4 62 8 7 15 18 15
25 0 6 9 20 20 30 11 10 20 29 20 42 0 12 5 23 11 23 5 0 16 15 24 34 8 19 19
37 24 40 15 10 -22 -77 -39 -92 -8 -8 -9 -11 -2 -7 9 5 12 -18 12 -96 0 -116
11 -122 36 -18 15 57 30 96 75 194 l13 30 4 -33 c2 -20 -4 -44 -14 -59 -13
-21 -15 -40 -10 -101 6 -78 12 -97 21 -68 14 45 17 51 22 39 3 -7 11 -13 19
-13 8 0 14 -10 14 -25 0 -15 6 -25 14 -25 7 0 16 -10 19 -22 5 -18 8 -19 22
-8 8 7 13 20 10 29 -2 9 -1 30 4 46 7 22 10 24 10 9 1 -11 8 -29 16 -40 14
-18 14 -17 16 16 0 19 4 46 8 60 7 23 8 21 13 -15 3 -22 15 -60 27 -85 19 -41
20 -42 15 -12 -2 18 0 32 6 32 5 0 10 -6 10 -14 0 -17 30 -30 31 -13 2 35 11
92 15 96 2 2 4 -12 4 -33 0 -20 7 -53 15 -73 8 -19 15 -44 15 -55 0 -10 5 -16
10 -13 6 3 10 16 10 29 0 12 7 43 16 69 12 35 13 56 6 89 -7 32 -10 36 -11 16
-1 -15 -6 -39 -11 -54 -8 -20 -14 -24 -22 -16 -15 15 4 258 22 275 10 9 14 9
17 -1 7 -19 23 -3 23 24 0 31 -5 30 -40 -8 -16 -17 -33 -29 -36 -25 -10 10 43
115 72 143 37 38 12 28 -29 -11 -31 -30 -41 -34 -69 -28 -18 3 -41 10 -51 15
-23 12 -90 -30 -82 -50 3 -8 -3 -16 -12 -19 -22 -6 -70 -96 -54 -101 17 -6 13
-20 -14 -56 -14 -18 -25 -42 -25 -54 0 -11 -3 -23 -8 -25 -4 -3 -8 28 -9 68
-2 63 1 81 27 134 17 34 30 66 30 71 0 13 38 32 49 25 5 -3 22 10 38 29 15 18
44 41 63 51 18 10 40 23 47 30 6 7 42 16 80 20 61 6 66 8 48 21 -10 8 -31 14
-47 14 -32 0 -34 6 -13 34 24 32 17 43 -31 51 -44 6 -129 -7 -166 -26 -22 -11
-59 -11 -77 0 -16 10 -42 -8 -33 -24 3 -5 2 -7 -3 -3 -4 4 -14 3 -21 -3 -9 -7
-21 -6 -41 4 -17 9 -49 14 -81 12 -30 -2 -50 1 -46 6 3 5 -1 9 -8 10 -7 1 -2
4 12 9 23 7 23 8 -13 15 -56 11 -125 0 -159 -25 -16 -12 -32 -19 -35 -16 -13
13 33 47 106 77 80 34 82 34 201 3 23 -5 23 -4 -5 13 -16 10 -49 25 -72 31
-24 7 -43 17 -43 22 0 16 95 45 146 44 38 -1 72 -12 125 -38 l74 -37 -35 31
c-19 17 -52 36 -72 42 -37 11 -47 21 -29 32 27 17 127 35 199 35 71 1 94 -3
158 -30z m1489 21 c13 -6 15 -9 5 -9 -8 0 -22 4 -30 9 -18 12 -2 12 25 0z
m-995 -40 c0 -6 11 -28 25 -49 50 -75 95 -198 94 -259 l0 -57 -19 70 c-24 92
-63 194 -95 248 -28 48 -30 57 -15 57 6 0 10 -5 10 -10z m601 -20 c5 0 9 -24
9 -53 0 -46 -4 -57 -30 -82 -35 -34 -36 -30 -20 75 13 79 21 103 27 78 3 -10
9 -18 14 -18z m-415 -84 c8 -42 14 -84 12 -94 -4 -16 -30 87 -44 168 -10 67
15 6 32 -74z m2522 88 c49 -14 15 -19 -122 -19 -79 0 -143 1 -142 3 16 16 218
28 264 16z m-2579 -90 c11 -35 23 -95 26 -132 5 -65 4 -63 -23 48 -16 63 -32
126 -36 139 -6 16 -5 21 3 17 6 -4 19 -36 30 -72z m2397 46 c-49 -10 -96 -22
-105 -25 -11 -4 -13 -3 -5 5 12 12 126 38 169 39 17 0 -10 -9 -59 -19z m4544
10 c0 -5 -4 -10 -10 -10 -5 0 -10 5 -10 10 0 6 5 10 10 10 6 0 10 -4 10 -10z
m-6416 -15 c-4 -8 -8 -15 -10 -15 -2 0 -4 7 -4 15 0 8 4 15 10 15 5 0 7 -7 4
-15z m-679 -50 c41 -68 85 -192 84 -233 l-1 -37 -10 30 c-28 85 -91 241 -99
250 -9 9 -13 35 -4 35 2 0 16 -20 30 -45z m2977 -34 c113 -76 203 -183 222
-263 11 -48 -7 -31 -54 48 -52 88 -126 168 -205 221 -30 19 -55 37 -55 39 0
12 26 -1 92 -45z m-123 13 c38 -8 77 -22 87 -29 16 -12 11 -12 -26 1 -25 8
-79 21 -120 29 -45 8 -62 14 -42 14 18 1 64 -6 101 -15z m-4294 -50 c-61 -29
-88 -60 -81 -89 3 -12 -1 -30 -10 -41 -14 -18 -15 -15 -10 31 7 56 39 96 89
113 57 18 63 11 12 -14z m4350 -12 c-3 -3 -11 0 -18 7 -9 10 -8 11 6 5 10 -3
15 -9 12 -12z m-5 -33 c41 -11 80 -25 85 -31 7 -8 4 -9 -9 -4 -10 3 -61 13
-113 22 -114 18 -209 8 -347 -36 -98 -32 -105 -25 -11 10 170 63 274 73 395
39z m-3465 1 c19 -8 19 -9 -2 -9 -12 -1 -25 4 -28 9 -7 12 2 12 30 0z m1170 1
c-6 -4 -39 -27 -75 -51 -42 -27 -58 -34 -45 -20 22 26 103 80 119 80 6 0 6 -3
1 -9z m-1315 -51 c0 -4 -32 -24 -71 -45 -50 -26 -74 -34 -82 -26 -15 15 9 40
66 66 44 21 87 23 87 5z m-573 -6 c-3 -3 -12 -4 -19 -1 -8 3 -5 6 6 6 11 1 17
-2 13 -5z m4223 -40 c66 -21 158 -70 148 -79 -2 -2 -39 14 -83 36 -90 43 -162
58 -305 61 l-95 2 70 5 c102 9 180 1 265 -25z m-343 10 c-3 -3 -12 -4 -19 -1
-8 3 -5 6 6 6 11 1 17 -2 13 -5z m1494 -46 c-1 -29 4 -133 11 -232 10 -166 10
-181 -7 -212 -10 -19 -21 -34 -25 -34 -8 0 -23 171 -15 178 2 3 9 -6 15 -19 9
-20 10 -15 5 25 -3 27 -5 60 -5 73 0 19 -4 24 -16 19 -11 -4 -10 2 6 24 20 28
20 31 5 46 -15 15 -18 15 -38 -2 -12 -11 -5 2 16 28 41 51 45 60 22 52 -8 -4
-15 -1 -15 6 0 9 -4 9 -17 -1 -14 -12 -14 -10 2 21 23 44 46 80 52 80 2 0 4
-24 4 -52z m-3667 -35 c-10 -22 -14 -57 -12 -89 4 -69 -11 -53 -19 19 -4 43
-2 62 11 82 25 37 37 30 20 -12z m-1188 11 c-3 -9 -6 -18 -6 -20 0 -2 -7 -4
-15 -4 -18 0 -20 26 -2 33 23 10 29 7 23 -9z m-106 -1 c-1 -5 -16 -26 -35 -47
-29 -33 -37 -37 -50 -26 -13 11 -20 9 -45 -15 -17 -16 -33 -25 -37 -21 -5 4 5
17 20 28 19 14 26 26 22 38 -8 24 15 37 29 18 9 -13 14 -11 36 9 23 22 60 32
60 16z m3905 -43 c3 0 3 5 -1 12 -4 7 -3 8 5 4 6 -4 8 -12 5 -18 -5 -8 -1 -9
10 -5 11 5 15 3 10 -5 -5 -7 -2 -9 9 -5 34 13 167 -109 167 -155 0 -7 -16 11
-35 39 -22 33 -40 50 -49 47 -8 -3 -17 -1 -21 5 -3 6 -13 11 -21 11 -7 0 -33
15 -57 33 -23 17 -54 40 -67 50 -25 17 -25 17 7 2 18 -8 35 -15 38 -15z
m-3643 -10 c17 0 18 -2 4 -15 -12 -12 -13 -21 -4 -46 20 -58 -13 -199 -48
-199 -13 0 -15 6 -9 38 4 20 8 75 9 122 3 81 15 138 24 112 2 -7 13 -12 24
-12z m-962 -2 c-1 -7 -44 -38 -96 -68 -53 -30 -111 -70 -130 -87 -40 -40 -50
-42 -28 -7 16 23 228 173 247 174 4 0 7 -6 7 -12z m1560 -18 c0 -5 -2 -10 -4
-10 -3 0 -8 5 -11 10 -3 6 -1 10 4 10 6 0 11 -4 11 -10z m3080 -81 c51 -40
140 -151 139 -173 0 -6 -8 0 -17 14 -37 56 -141 155 -204 196 -38 24 -68 46
-68 49 0 10 102 -48 150 -86z m-26 60 c28 -17 67 -45 86 -63 l35 -31 -29 33
c-17 17 -25 32 -19 32 19 0 95 -91 89 -106 -3 -9 -6 -19 -6 -24 0 -5 -24 16
-52 46 -29 31 -79 76 -111 100 -69 51 -66 57 7 13z m-2510 -41 c-5 -8 -10 -5
-14 8 -10 25 0 41 12 20 5 -9 6 -21 2 -28z m-54 28 c0 -3 -4 -8 -10 -11 -5 -3
-10 -1 -10 4 0 6 5 11 10 11 6 0 10 -2 10 -4z m-1572 -28 c-6 -18 -28 -21 -28
-4 0 9 7 16 16 16 9 0 14 -5 12 -12z m1569 -10 c5 -7 6 -31 2 -53 -6 -37 -6
-38 -8 -8 0 17 -5 35 -11 38 -12 8 -13 35 -1 35 5 0 13 -6 18 -12z m257 -35
c-8 -33 -23 -63 -24 -47 0 27 13 74 21 74 5 0 6 -12 3 -27z m46 -2 c0 -11 -4
-23 -10 -26 -6 -4 -10 5 -10 19 0 14 5 26 10 26 6 0 10 -9 10 -19z m2231 2
c13 -15 12 -15 -11 -3 -34 17 -36 20 -18 20 9 0 22 -7 29 -17z m-4091 -27 c0
-14 -27 -42 -34 -35 -2 2 0 14 5 27 9 24 29 30 29 8z m1576 -52 c-4 -9 -9 -15
-11 -12 -3 3 -3 13 1 22 4 9 9 15 11 12 3 -3 3 -13 -1 -22z m-25 -170 c33
-161 50 -294 37 -294 -4 0 -8 2 -8 3 0 2 -9 39 -20 83 -12 43 -25 126 -30 184
-6 58 -13 123 -16 145 -4 22 -3 37 0 34 4 -4 21 -73 37 -155z m2799 110 c7
-19 10 -38 7 -41 -7 -6 -22 24 -31 60 -10 40 10 25 24 -19z m-2116 -18 c30
-28 36 -40 37 -77 0 -24 2 -59 3 -76 4 -40 -7 -35 -24 9 -7 18 -19 40 -27 49
-7 8 -22 41 -32 72 -24 69 -12 75 43 23z m-54 -35 c13 -25 13 -34 0 -26 -16
10 -32 45 -21 45 6 0 15 -9 21 -19z m2149 -43 c10 -24 21 -56 24 -73 l7 -30
-16 28 c-17 31 -45 117 -38 117 3 0 13 -19 23 -42z m-4941 0 c-2 -6 -10 -14
-16 -16 -7 -2 -10 2 -6 12 7 18 28 22 22 4z m5812 -52 c0 -49 -32 -102 -48
-78 -6 9 -18 1 -46 -29 -20 -23 -39 -40 -41 -37 -2 2 13 24 35 48 22 25 39 51
40 58 0 13 48 82 56 82 2 0 4 -20 4 -44z m-5780 15 c0 -12 -47 -61 -60 -61
-16 0 -12 12 17 42 27 28 43 35 43 19z m-184 -141 c7 -22 8 -40 4 -40 -13 0
-40 48 -47 83 -5 31 -5 31 13 15 10 -10 24 -36 30 -58z m5974 33 c0 -54 20
-260 36 -381 14 -103 15 -127 4 -150 l-13 -27 -10 27 -11 28 -29 -33 -28 -32
27 53 28 53 -18 107 c-9 59 -17 114 -17 122 -1 46 -11 69 -27 63 -15 -6 -15
-4 1 14 14 16 17 30 12 57 -4 20 -10 36 -13 36 -3 0 -24 -17 -46 -37 l-40 -38
33 40 c18 22 46 59 64 83 36 49 47 52 47 15z m-5765 -36 c10 -19 15 -42 12
-52 -6 -14 -15 -9 -51 32 -39 42 -43 49 -29 60 21 16 45 3 68 -40z m1639 37
c3 -9 6 -27 6 -41 0 -39 -25 -22 -28 20 -3 37 11 50 22 21z m626 -49 c0 -8 -4
-15 -10 -15 -5 0 -10 7 -10 15 0 8 5 15 10 15 6 0 10 -7 10 -15z m-20 -55 c7
-24 5 -30 -12 -35 -26 -9 -35 2 -20 26 7 10 10 32 7 47 -5 23 -5 24 5 9 7 -10
16 -31 20 -47z m2649 -35 c0 -43 -15 -12 -23 45 l-6 45 15 -30 c8 -16 14 -43
14 -60z m-4781 38 c19 -30 4 -29 -33 3 -29 24 -29 25 -6 22 13 -2 30 -13 39
-25z m-32 -38 c15 -23 12 -65 -5 -65 -4 0 -13 17 -21 38 -8 20 -16 40 -18 45
-9 19 29 4 44 -18z m1999 15 c-3 -5 -13 -10 -21 -10 -8 0 -12 5 -9 10 3 6 13
10 21 10 8 0 12 -4 9 -10z m-2070 -39 c-3 -6 -11 -11 -17 -11 -6 0 -6 6 2 15
14 17 26 13 15 -4z m4825 -28 c31 -52 38 -139 15 -184 -17 -33 -169 -264 -200
-303 -8 -11 -17 -17 -19 -15 -5 5 90 153 156 244 46 63 55 121 35 223 -8 39
-13 72 -11 72 1 0 12 -17 24 -37z m-4946 2 c3 -8 1 -15 -3 -15 -5 0 -11 7 -15
15 -3 8 -1 15 3 15 5 0 11 -7 15 -15z m299 -37 c20 -23 23 -78 5 -77 -7 0 -25
25 -40 55 -27 55 -27 55 -5 49 12 -4 30 -16 40 -27z m1493 -3 c8 -31 58 -75
87 -75 25 0 54 -16 46 -25 -3 -3 -30 0 -60 7 -53 12 -82 33 -75 53 2 6 -2 19
-10 30 -16 22 -18 35 -4 35 5 0 12 -11 16 -25z m317 -17 c16 -8 17 -12 6 -19
-12 -7 -12 -9 1 -9 23 0 -2 -17 -37 -25 -27 -5 -37 -2 -58 21 -24 26 -28 27
-61 15 -52 -19 -54 -5 -3 18 46 21 112 21 152 -1z m537 12 c-20 -13 -67 -13
-75 0 -4 6 12 10 42 10 35 0 44 -3 33 -10z m-240 -20 c-20 -13 -50 -13 -50 0
0 6 15 10 33 10 24 0 28 -3 17 -10z m-808 -62 c2 -29 0 -69 -5 -88 -5 -19 -13
-61 -18 -93 -9 -58 -35 -117 -52 -117 -5 0 -6 8 -3 18 18 64 46 208 52 265 3
37 9 67 14 67 4 0 10 -24 12 -52z m28 17 c0 -14 -4 -25 -10 -25 -5 0 -10 11
-10 25 0 14 5 25 10 25 6 0 10 -11 10 -25z m921 -3 c26 -23 32 -37 39 -97 11
-90 0 -107 -17 -24 -8 38 -25 81 -43 107 -34 48 -25 55 21 14z m-441 -22 c-20
-13 -53 -13 -45 0 3 6 18 10 33 10 21 0 24 -2 12 -10z m163 -7 c3 -5 8 -24 12
-43 7 -32 6 -33 -9 -21 -10 8 -24 27 -32 43 -14 26 -13 28 5 28 11 0 22 -3 24
-7z m78 -12 c13 -11 21 -22 17 -26 -8 -8 -58 23 -58 36 0 14 16 10 41 -10z
m-256 -31 c-3 -5 -11 -10 -16 -10 -6 0 -7 5 -4 10 3 6 11 10 16 10 6 0 7 -4 4
-10z m234 -41 c12 -53 7 -75 -9 -49 -9 15 -14 100 -6 100 2 0 9 -23 15 -51z
m75 15 c11 -28 6 -39 -9 -20 -8 11 -15 23 -15 28 0 14 18 9 24 -8z m-774 -61
c0 -14 -6 -23 -15 -23 -16 0 -18 12 -8 48 4 18 8 20 14 10 5 -7 9 -23 9 -35z
m4330 -256 c16 -138 24 -271 21 -312 -2 -21 -21 21 -21 48 0 40 -14 33 -49
-23 -17 -27 -33 -50 -36 -50 -6 0 31 75 55 110 12 18 15 39 12 73 -4 42 -6 46
-20 35 -13 -11 -14 -10 -4 9 15 27 16 73 1 73 -6 0 -4 9 4 21 13 18 13 24 1
47 -8 15 -14 34 -14 42 0 8 -20 -18 -44 -58 -62 -105 -75 -111 -26 -12 54 108
91 172 97 166 2 -2 13 -78 23 -169z m-1103 14 c-19 -52 -37 -90 -40 -84 -5 7
35 136 60 193 5 13 6 13 10 0 2 -8 -12 -57 -30 -109z m-3847 -46 c121 -19 276
-15 354 9 66 21 78 20 39 -4 -22 -13 -31 -25 -27 -35 7 -17 -9 -20 -36 -5 -18
9 -18 8 -8 -20 15 -45 1 -50 -33 -12 -28 32 -31 32 -70 22 -23 -6 -48 -9 -56
-6 -12 5 -14 1 -10 -14 8 -30 -7 -32 -33 -5 -24 26 -54 33 -65 15 -9 -15 -35
-12 -35 5 0 15 -45 16 -69 1 -7 -4 -11 0 -11 11 0 15 -9 18 -50 20 -41 2 -52
-2 -65 -20 -8 -12 -15 -32 -15 -44 0 -13 -4 -23 -10 -23 -5 0 -10 25 -10 55 0
83 -1 83 210 50z m4015 -25 c-28 -12 -47 -12 -40 0 3 6 18 10 33 9 24 0 25 -1
7 -9z m-4155 -10 c0 -5 -4 -10 -10 -10 -5 0 -10 5 -10 10 0 6 5 10 10 10 6 0
10 -4 10 -10z m4170 -20 c0 -5 -12 -10 -27 -10 -22 0 -25 2 -13 10 20 13 40
13 40 0z m82 -135 c14 -46 26 -125 18 -125 -3 0 -15 7 -26 15 -19 14 -19 14 1
15 16 0 17 2 6 9 -16 10 -16 10 -32 94 -10 52 -13 57 -37 58 -26 2 -26 2 -3 6
20 4 22 9 18 36 -4 25 0 19 20 -23 14 -30 30 -68 35 -85z m-302 118 c0 -16
-40 -73 -51 -73 -6 0 -9 3 -7 8 3 4 11 22 18 40 13 28 40 45 40 25z m217 -19
c-3 -3 -12 -4 -19 -1 -8 3 -5 6 6 6 11 1 17 -2 13 -5z m-4247 -74 c0 -5 -27
-23 -60 -40 -51 -26 -64 -38 -87 -83 -14 -28 -36 -83 -48 -121 -23 -72 -25
-73 -155 -175 -55 -42 -87 -130 -58 -159 9 -9 7 -12 -11 -12 -22 0 -23 3 -19
51 7 70 47 123 130 172 42 25 71 50 77 66 5 14 24 64 41 111 39 104 45 113
112 161 53 38 78 48 78 29z m56 -74 c-4 -16 -26 -38 -59 -59 -92 -60 -123 -98
-135 -164 -5 -32 -6 -65 -2 -74 10 -18 -25 -101 -65 -153 -27 -36 -31 -60 -15
-102 6 -14 8 -41 4 -60 -6 -35 -62 -107 -97 -125 -11 -7 -4 5 17 27 55 56 69
89 61 138 -11 71 -7 107 13 130 49 53 62 88 62 171 0 52 5 90 16 110 21 41
187 204 198 194 5 -4 6 -19 2 -33z m3874 -63 c-38 -119 -78 -185 -126 -208
-52 -24 -53 -12 -3 37 32 31 59 75 98 161 30 64 56 115 59 113 2 -3 -10 -49
-28 -103z m-3816 81 c10 -4 16 -18 16 -38 l-1 -31 -24 28 c-36 40 -32 57 9 41z
m-24 -79 c12 -22 11 -36 -4 -98 -24 -98 -35 -125 -68 -172 -15 -22 -35 -66
-43 -98 -8 -31 -28 -84 -45 -117 -35 -69 -38 -113 -11 -154 l20 -29 3 39 c2
30 8 40 23 42 18 4 19 3 3 -10 -19 -15 -29 -99 -12 -105 12 -4 58 143 49 157
-4 6 -1 10 4 10 6 0 11 22 11 51 0 54 26 112 55 123 10 3 15 19 15 47 0 38 -1
40 -17 28 -17 -13 -17 -13 0 7 16 20 53 121 49 137 -4 13 27 79 35 75 5 -2 23
-10 40 -17 l32 -13 -19 -36 c-11 -21 -30 -49 -41 -63 -17 -22 -20 -32 -12 -55
5 -16 14 -28 19 -28 5 1 20 34 34 73 14 39 31 76 38 83 15 15 16 4 2 -23 -13
-24 -7 -24 16 -2 15 16 17 16 30 -2 8 -11 12 -24 10 -30 -37 -81 -55 -136 -55
-160 0 -23 5 -15 18 30 18 63 47 115 63 115 6 0 7 -11 4 -25 -7 -26 3 -32 21
-14 7 7 17 8 28 1 12 -6 14 -11 6 -16 -6 -4 -11 -16 -11 -27 0 -10 -6 -19 -14
-19 -8 0 -17 -10 -19 -22 -3 -13 -3 -4 -2 20 3 57 -18 40 -39 -32 -14 -46 -14
-57 -1 -100 18 -58 19 -80 5 -71 -6 4 -10 3 -9 -2 4 -25 -4 -24 -16 2 -11 24
-14 26 -15 10 -1 -11 -5 -46 -9 -77 -7 -60 -4 -67 18 -45 8 6 6 0 -4 -16 -10
-16 -17 -47 -17 -76 0 -62 9 -79 28 -54 14 17 15 16 8 -6 -4 -17 -3 -21 6 -16
9 6 9 3 1 -13 -11 -22 9 -59 106 -190 l27 -37 -28 25 c-37 33 -126 145 -126
159 0 6 -6 11 -13 11 -8 0 -13 13 -14 33 -1 17 -7 46 -13 62 l-12 30 -10 -25
c-5 -14 -7 -45 -3 -70 4 -32 3 -41 -4 -30 -26 38 -6 283 26 321 7 9 13 37 12
65 -1 44 -2 46 -9 19 -5 -16 -16 -50 -24 -75 -9 -25 -19 -63 -23 -85 l-7 -40
-4 45 -4 45 -14 -55 c-16 -65 -17 -126 -5 -166 5 -16 17 -55 26 -86 8 -32 19
-58 24 -58 5 0 14 14 20 32 6 17 14 28 18 24 4 -4 -1 -22 -12 -41 -16 -32 -17
-37 -3 -52 9 -10 19 -28 23 -41 4 -13 20 -38 35 -56 24 -27 58 -100 84 -179 5
-14 12 -17 40 -11 26 4 41 1 60 -13 14 -10 26 -22 26 -26 0 -4 -12 2 -28 13
-20 15 -36 19 -60 14 -29 -6 -32 -10 -32 -43 0 -20 -11 -90 -24 -155 -23 -112
-24 -120 -8 -142 9 -13 34 -30 54 -38 31 -13 40 -24 55 -66 10 -28 37 -74 59
-101 38 -46 64 -104 64 -140 0 -8 11 -50 25 -93 14 -43 25 -96 25 -117 0 -35
26 -122 52 -176 17 -34 58 -47 107 -32 31 9 50 9 79 1 37 -11 102 -65 102 -84
0 -6 -17 6 -37 26 -47 45 -94 56 -140 31 -32 -17 -34 -17 -72 0 -79 35 -118
108 -131 243 -5 48 -13 107 -19 132 -6 25 -13 67 -17 94 -4 37 -13 57 -37 80
-55 54 -77 88 -77 123 0 30 -5 36 -44 53 -24 10 -49 27 -54 37 -15 26 -23 12
-29 -55 -8 -87 0 -112 37 -112 38 0 40 -26 3 -33 -59 -12 -78 61 -49 186 13
56 13 61 -12 119 -21 47 -28 56 -33 41 -5 -11 -7 -4 -6 22 1 41 -19 210 -29
242 -5 16 -4 16 5 2 6 -9 15 -49 22 -90 17 -111 53 -239 68 -239 8 0 43 184
45 235 1 34 -3 40 -30 51 l-31 13 5 -48 c2 -29 0 -51 -7 -55 -7 -5 -9 3 -5 23
9 44 -2 78 -37 109 -17 15 -36 36 -41 47 -6 11 6 3 27 -19 37 -37 102 -73 113
-62 10 11 -19 85 -54 138 -66 97 -112 176 -124 215 -7 21 -24 50 -38 66 -21
22 -27 40 -31 95 l-4 67 -13 -60 c-19 -89 -17 -115 16 -174 22 -39 25 -49 11
-37 -45 41 -51 73 -45 242 l5 159 -30 -35 c-32 -35 -42 -62 -16 -40 23 19 19
-5 -5 -38 -28 -38 -38 -102 -17 -102 26 0 40 -35 21 -51 -11 -9 -14 -22 -10
-43 5 -24 2 -34 -16 -47 -21 -16 -21 -18 -5 -43 l17 -26 -26 10 c-32 12 -34
12 -34 0 0 -6 12 -16 28 -22 22 -9 24 -12 9 -15 -34 -8 -54 23 -60 93 -5 48
-2 76 9 102 12 30 12 38 1 50 -12 11 -19 10 -48 -7 -19 -12 -56 -24 -83 -27
-38 -6 -58 -15 -83 -41 -38 -37 -59 -46 -25 -10 12 13 22 33 22 45 0 20 5 22
59 22 66 0 110 13 128 37 11 14 9 21 -9 40 -31 34 -29 102 5 175 15 32 26 61
25 65 -3 12 40 122 63 161 10 18 19 38 19 44 0 18 -30 -13 -50 -51 -18 -35
-70 -102 -70 -90 0 3 23 41 51 83 37 57 48 82 43 98 -6 20 -8 19 -26 -13 l-19
-34 7 45 c7 47 32 105 67 152 24 32 43 38 27 9 -16 -32 -13 -50 10 -44 22 6
26 33 10 64 -6 10 -7 19 -2 19 5 0 15 -11 22 -25z m5110 -11 c0 -8 -5 -12 -10
-9 -6 4 -8 11 -5 16 9 14 15 11 15 -7z m-67 -9 c-3 -9 -8 -14 -10 -11 -3 3 -2
9 2 15 9 16 15 13 8 -4z m-810 -6 c27 -7 37 -15 37 -30 0 -21 -10 -19 -41 8
-9 8 -30 18 -45 23 -43 13 2 12 49 -1z m957 -70 c69 -83 83 -114 84 -184 1
-47 -2 -60 -15 -63 -13 -2 -16 7 -15 55 0 69 -17 107 -85 181 -27 30 -49 58
-49 63 0 25 34 3 80 -52z m-922 12 c15 -9 23 -156 12 -201 -7 -24 -7 -24 -14
-4 -4 12 -6 26 -5 30 5 28 -5 42 -33 52 l-33 12 33 -5 c28 -4 32 -2 32 19 0
13 -10 31 -22 40 -13 8 -16 13 -7 10 20 -6 32 29 16 45 -13 13 2 14 21 2z
m-32 -146 c10 -8 14 -15 8 -15 -5 0 -19 7 -30 15 -10 8 -14 15 -8 15 5 0 19
-7 30 -15z m11 -63 c36 -47 35 -91 -4 -174 -33 -70 -132 -206 -184 -253 -53
-48 -109 -80 -109 -62 0 13 60 67 75 67 7 0 100 99 132 142 37 48 93 168 86
184 -7 19 -23 18 -23 -2 0 -14 -3 -14 -15 -4 -9 7 -13 15 -10 18 3 3 0 11 -6
19 -9 11 -5 12 21 6 26 -5 32 -3 28 8 -3 8 -12 13 -20 11 -8 -1 -15 5 -15 13
0 11 7 13 26 8 24 -5 23 -3 -9 20 -19 15 -45 31 -57 36 -35 16 -27 20 17 9 27
-7 48 -22 67 -46z m-3887 19 c0 -20 -42 -152 -60 -186 -15 -30 -20 -58 -20
-121 0 -60 -4 -85 -15 -94 -9 -8 -15 -9 -15 -2 0 6 5 14 10 17 14 9 12 73 -2
77 -9 3 -3 38 21 129 18 68 37 141 42 161 7 27 14 36 24 32 8 -4 15 -9 15 -13z
m42 -113 c-8 -8 -9 -4 -5 13 4 13 8 18 11 10 2 -7 -1 -18 -6 -23z m4898 -92
c15 -107 8 -514 -9 -568 -19 -60 -34 -58 -28 3 7 75 8 436 0 481 -3 24 -10 35
-17 31 -6 -3 -6 0 2 8 19 20 15 42 -5 34 -15 -5 -16 -4 -5 6 6 7 12 20 12 28
0 10 -10 5 -32 -15 -61 -56 -73 -58 -23 -4 28 30 41 48 30 40 -29 -21 -157
-131 -178 -154 -9 -11 -19 -17 -22 -15 -2 3 53 57 123 121 83 76 129 112 134
104 4 -6 12 -52 18 -100z m-5053 82 c-3 -8 -6 -5 -6 6 -1 11 2 17 5 13 3 -3 4
-12 1 -19z m1663 14 c0 -12 -23 -32 -37 -32 -11 0 -11 4 -1 20 13 20 38 28 38
12z m2290 -32 c0 -14 -14 -12 -28 2 -19 19 -14 30 8 18 11 -6 20 -15 20 -20z
m2880 14 c0 -8 -5 -12 -10 -9 -6 4 -8 11 -5 16 9 14 15 11 15 -7z m-6624 -54
c-18 -46 -19 -137 -2 -159 9 -11 8 -13 -4 -9 -20 6 -21 140 -1 186 20 47 27
31 7 -18z m3708 24 c9 -24 7 -28 -9 -14 -17 14 -20 30 -6 30 5 0 12 -7 15 -16z
m3036 0 c0 -8 -4 -12 -10 -9 -5 3 -10 10 -10 16 0 5 5 9 10 9 6 0 10 -7 10
-16z m-6700 -22 c0 -51 49 -95 64 -57 8 22 36 18 36 -5 0 -12 -10 -25 -25 -32
-44 -20 -95 32 -95 98 0 13 5 24 10 24 6 0 10 -12 10 -28z m1295 -5 c-27 -82
-45 -156 -45 -186 0 -20 -5 -43 -10 -51 -15 -23 -12 66 5 155 8 43 20 84 26
91 13 16 30 9 24 -9z m2340 13 c3 -5 2 -10 -4 -10 -5 0 -13 5 -16 10 -3 6 -2
10 4 10 5 0 13 -4 16 -10z m-2216 -37 c-5 -21 -13 -103 -18 -183 l-8 -145 -3
100 -3 100 -8 -65 c-12 -83 4 -204 38 -288 32 -82 24 -90 -12 -11 -36 82 -54
189 -55 330 0 143 6 178 34 189 40 16 44 13 35 -27z m311 -30 c0 -9 3 -13 6
-10 7 6 15 -3 69 -78 24 -33 17 -28 -38 25 -69 66 -78 80 -52 80 8 0 15 -7 15
-17z m-1995 -30 c-8 -35 -26 -55 -19 -22 9 39 13 49 20 49 3 0 3 -12 -1 -27z
m1938 -93 c60 -44 70 -63 20 -36 -38 20 -133 105 -133 119 0 6 12 -1 28 -15
15 -14 53 -44 85 -68z m-23 -52 c0 -14 -9 -9 -50 28 -55 50 -51 64 5 17 25
-20 45 -41 45 -45z m1742 45 c30 -33 52 -72 44 -81 -3 -3 -7 -3 -9 -1 -72 97
-91 142 -35 82z m-14 -41 c20 -30 11 -28 -19 4 -13 15 -18 25 -10 22 8 -2 21
-14 29 -26z m-1778 -35 c0 -6 -9 -2 -20 8 -11 10 -20 23 -20 28 0 6 9 2 20 -8
11 -10 20 -23 20 -28z m-2548 11 c-31 -34 -73 -130 -66 -153 9 -29 35 -55 54
-55 20 0 30 19 30 55 0 13 4 26 9 29 9 6 7 -29 -4 -63 -6 -19 -2 -21 29 -21
56 0 66 -8 66 -51 0 -42 5 -44 65 -40 47 4 23 -10 -31 -17 -47 -7 -47 -7 -70
-67 -16 -41 -23 -82 -23 -130 -1 -65 3 -78 49 -169 28 -54 50 -107 50 -116 0
-10 11 -31 24 -47 33 -40 36 -55 15 -82 -11 -13 -19 -31 -19 -40 0 -9 -6 -25
-14 -36 -19 -28 -29 -75 -16 -75 6 0 21 7 35 16 13 8 38 14 57 12 27 -2 34 -8
36 -29 2 -15 12 -35 23 -45 13 -12 19 -30 19 -59 0 -49 -15 -66 -62 -68 -26
-2 -33 -6 -33 -22 0 -17 6 -19 33 -17 35 4 36 1 47 -62 6 -36 5 -38 -9 -27 -9
8 -16 27 -16 43 0 26 -3 30 -22 25 -26 -7 -58 17 -58 43 0 9 9 25 20 35 16 15
22 15 35 5 23 -19 45 5 45 48 0 24 -7 42 -25 58 -14 13 -25 32 -25 44 0 27
-41 27 -65 0 -11 -12 -28 -20 -39 -18 -32 5 -27 72 8 122 36 53 42 83 22 105
-9 10 -27 46 -40 79 -14 34 -39 87 -56 117 -27 48 -32 68 -37 149 -5 84 -3 99
16 137 l22 42 -25 21 c-15 13 -29 37 -34 61 -6 32 -13 41 -32 43 -66 9 -89 82
-48 151 21 36 68 91 77 91 2 0 -5 -10 -17 -22z m2146 -83 c0 -44 -2 -54 -8
-35 -11 35 -11 141 0 115 5 -11 8 -47 8 -80z m2162 74 c0 -6 -4 -7 -10 -4 -5
3 -10 11 -10 16 0 6 5 7 10 4 6 -3 10 -11 10 -16z m-2211 -99 c1 -66 18 -171
37 -234 16 -51 -9 -2 -32 64 -28 82 -41 187 -29 246 6 33 9 36 15 19 5 -11 9
-54 9 -95z m2156 60 c3 -5 2 -10 -4 -10 -5 0 -13 5 -16 10 -3 6 -2 10 4 10 5
0 13 -4 16 -10z m-1178 -30 c-7 -17 -13 -26 -15 -21 -3 10 15 51 22 51 3 0 -1
-14 -7 -30z m1223 9 c0 -6 -4 -7 -10 -4 -5 3 -10 11 -10 16 0 6 5 7 10 4 6 -3
10 -11 10 -16z m-1263 -11 c-3 -8 -6 -5 -6 6 -1 11 2 17 5 13 3 -3 4 -12 1
-19z m-778 -77 c13 -84 8 -106 -7 -34 -20 88 -24 129 -14 118 6 -5 15 -43 21
-84z m2090 26 c-92 -78 -248 -148 -454 -203 -66 -18 -114 -24 -180 -23 l-90 1
85 14 c47 8 99 16 115 18 17 2 37 6 45 10 66 26 233 76 240 71 6 -4 10 0 10 8
0 8 18 20 40 27 22 7 40 16 40 21 0 4 11 10 24 13 14 3 32 13 40 22 9 8 28 17
43 18 15 2 32 12 38 22 14 26 29 36 34 22 2 -7 -11 -25 -30 -41z m-184 32 c11
-17 -1 -21 -15 -4 -8 9 -8 15 -2 15 6 0 14 -5 17 -11z m-1776 -46 c0 -36 -3
-43 -9 -28 -12 28 -12 75 0 75 6 0 10 -21 9 -47z m152 30 c13 -15 12 -15 -8
-4 -24 12 -29 21 -14 21 5 0 15 -7 22 -17z m1584 7 c3 -6 -1 -7 -9 -4 -18 7
-21 14 -7 14 6 0 13 -4 16 -10z m-1718 -42 c-3 -7 -5 -2 -5 12 0 14 2 19 5 13
2 -7 2 -19 0 -25z m-1950 -116 c4 -8 1 -23 -6 -33 -13 -21 4 -59 26 -59 7 0
13 -4 13 -10 0 -14 -13 -13 -29 3 -10 10 -14 9 -22 -5 -6 -10 -18 -18 -27 -18
-32 0 -68 -43 -81 -96 -14 -60 -6 -136 22 -208 11 -28 27 -80 37 -116 21 -76
31 -222 15 -217 -5 2 -13 53 -16 113 -5 84 -12 125 -33 178 -14 39 -28 72 -30
74 -4 3 -43 -14 -54 -23 -2 -2 4 -15 13 -28 15 -24 15 -28 -14 -83 -32 -58
-39 -110 -21 -145 6 -10 17 -19 25 -19 8 0 15 -4 15 -10 0 -19 -30 -10 -46 15
-25 38 -15 123 20 175 25 38 26 43 12 59 -24 26 -19 44 15 63 27 16 30 21 24
50 -4 18 -11 38 -17 45 -5 6 -6 23 -2 37 6 24 4 26 -32 23 -33 -2 -41 2 -61
32 -25 37 -29 51 -13 51 5 0 12 -11 16 -24 9 -38 37 -58 65 -48 13 5 30 7 37
5 6 -3 12 3 12 11 0 9 14 42 30 73 17 31 30 51 30 44 0 -17 40 -13 46 4 4 8
-2 27 -11 43 -10 15 -12 22 -5 15 17 -15 40 -5 40 17 0 11 -12 22 -30 29 -16
5 -30 12 -30 15 0 11 62 -18 67 -32z m1723 -33 c12 -23 19 -43 17 -46 -6 -5
-21 21 -37 61 -15 40 -3 31 20 -15z m-1613 -6 c-3 -10 -5 -4 -5 12 0 17 2 24
5 18 2 -7 2 -21 0 -30z m-313 5 c-3 -12 -16 -30 -28 -40 -18 -15 -19 -17 -3
-18 9 0 17 5 17 10 0 6 5 10 11 10 8 0 8 -5 -1 -15 -7 -8 -18 -15 -24 -15 -6
0 -19 -8 -28 -17 -29 -31 -48 -44 -48 -34 0 6 11 18 25 27 14 9 25 22 25 29 0
7 7 18 15 25 9 7 13 15 11 17 -4 4 24 40 32 42 2 1 0 -9 -4 -21z m316 -69 c0
-6 -4 -7 -10 -4 -5 3 -10 11 -10 16 0 6 5 7 10 4 6 -3 10 -11 10 -16z m1694
-30 c4 -22 20 -70 36 -106 17 -37 28 -68 25 -71 -2 -3 -18 24 -35 59 -30 65
-54 159 -40 159 4 0 10 -18 14 -41z m157 -11 c12 -24 27 -46 33 -50 6 -4 11
-20 12 -35 0 -15 4 -37 9 -48 5 -14 5 -17 -2 -10 -10 9 -83 169 -83 180 0 15
12 0 31 -37z m130 -18 c10 -22 14 -40 10 -40 -8 0 -41 71 -41 87 0 13 13 -8
31 -47z m519 46 c0 -2 -37 -25 -82 -50 -48 -28 -74 -38 -63 -26 10 11 45 33
78 50 62 31 67 33 67 26z m-2182 -140 c10 -12 27 -49 37 -83 18 -62 18 -63 -4
-119 -12 -31 -20 -58 -19 -59 2 -1 27 -10 56 -19 28 -10 52 -19 52 -21 0 -2 3
-12 6 -22 6 -17 6 -17 -8 1 -14 17 -78 46 -105 46 -25 0 -14 -39 12 -46 14 -3
25 -10 25 -15 0 -15 -24 -10 -48 11 -27 22 -27 74 1 102 31 33 17 139 -31 235
-11 21 -23 57 -27 78 -5 37 -4 36 14 -14 12 -30 29 -64 39 -75z m1399 -99 c63
-67 74 -89 36 -68 -24 12 -130 139 -172 206 -51 81 -35 85 20 4 28 -41 80
-105 116 -142z m211 173 c6 -16 9 -30 7 -30 -5 0 -35 56 -35 65 0 15 19 -8 28
-35z m-274 -26 c5 -14 4 -15 -9 -4 -17 14 -19 20 -6 20 5 0 12 -7 15 -16z
m-2424 -9 c0 -8 -4 -15 -10 -15 -5 0 -10 7 -10 15 0 8 5 15 10 15 6 0 10 -7
10 -15z m610 -20 c14 -19 14 -19 -2 -6 -10 7 -18 18 -18 24 0 6 1 8 3 6 1 -2
9 -13 17 -24z m-236 -9 c-3 -9 -10 -16 -15 -16 -5 0 -4 9 3 20 14 22 21 20 12
-4z m2656 -7 c-19 -17 -69 -57 -111 -89 -72 -56 -102 -85 -142 -140 -15 -21
-14 -19 2 16 30 62 108 143 191 196 85 54 112 62 60 17z m-2367 -32 c3 -8 -1
-14 -8 -14 -7 0 -11 6 -8 14 3 7 6 13 8 13 2 0 5 -6 8 -13z m2331 -35 c-21
-15 -52 -36 -69 -46 -50 -32 -11 8 43 44 57 38 79 40 26 2z m-1927 -4 c-3 -8
-6 -5 -6 6 -1 11 2 17 5 13 3 -3 4 -12 1 -19z m-747 -8 c0 -5 -4 -10 -10 -10
-5 0 -10 5 -10 10 0 6 5 10 10 10 6 0 10 -4 10 -10z m2686 -15 c-11 -8 -25
-15 -30 -15 -6 0 -2 7 8 15 11 8 25 15 30 15 6 0 2 -7 -8 -15z m-1929 -27 c-3
-7 -5 -2 -5 12 0 14 2 19 5 13 2 -7 2 -19 0 -25z m1162 -43 c14 -22 53 -65 86
-96 67 -63 68 -85 3 -46 -49 29 -79 66 -114 140 -24 52 -34 102 -13 62 6 -11
23 -38 38 -60z m-1172 -32 c-3 -10 -5 -2 -5 17 0 19 2 27 5 18 2 -10 2 -26 0
-35z m1148 7 c3 -11 24 -43 46 -70 49 -62 47 -85 -3 -36 -34 33 -77 126 -58
126 5 0 11 -9 15 -20z m115 10 c0 -5 -2 -10 -4 -10 -3 0 -8 5 -11 10 -3 6 -1
10 4 10 6 0 11 -4 11 -10z m0 -48 c0 -12 -4 -12 -20 3 -11 10 -20 25 -20 33 0
12 4 12 20 -3 11 -10 20 -25 20 -33z m-159 5 c12 -22 12 -22 -10 -3 -11 11
-21 23 -21 28 0 14 19 -1 31 -25z m3206 -109 l6 -97 59 52 c121 106 130 108
28 4 -57 -59 -108 -107 -112 -107 -11 0 -10 58 0 64 5 3 5 27 1 53 -4 26 -8
77 -8 113 0 98 19 40 26 -82z m-4556 21 c-16 -22 -20 -38 -16 -76 l4 -48 -10
48 c-8 42 -7 52 11 77 11 16 18 36 14 47 -5 17 -5 17 6 -1 10 -15 8 -23 -9
-47z m2277 14 c34 -19 62 -36 62 -38 0 -4 -98 34 -142 55 -16 7 -28 17 -28 22
0 14 37 0 108 -39z m50 22 c39 -17 172 -95 172 -101 0 -2 -17 3 -37 12 -21 8
-56 23 -78 32 -58 23 -134 72 -112 72 10 0 34 -7 55 -15z m-748 -5 c0 -5 -4
-10 -10 -10 -5 0 -10 5 -10 10 0 6 5 10 10 10 6 0 10 -4 10 -10z m-180 -20 c6
-11 7 -20 2 -20 -10 0 -32 21 -32 32 0 16 19 8 30 -12z m322 -44 c21 -16 36
-31 34 -34 -8 -8 -76 39 -87 60 -13 24 -4 20 53 -26z m518 9 c14 -8 21 -14 15
-14 -5 0 -21 6 -35 14 -14 8 -20 14 -15 14 6 0 21 -6 35 -14z m-2020 -10 c0
-8 -4 -15 -10 -15 -5 0 -10 7 -10 15 0 8 5 15 10 15 6 0 10 -7 10 -15z m1480
-51 c0 -9 -37 15 -51 33 -10 12 -5 11 19 -6 17 -12 32 -24 32 -27z m-85 11
c11 0 31 -8 45 -18 29 -20 15 -22 -20 -2 -39 23 -48 17 -15 -10 40 -33 21 -32
-22 1 -31 23 -48 55 -21 38 7 -4 21 -8 33 -9z m-89 -52 c17 -13 36 -23 42 -23
6 0 14 -4 17 -10 8 -12 -17 -2 -73 29 -23 14 -42 29 -42 33 0 10 12 4 56 -29z
m-41 -19 l30 -25 -32 15 c-17 9 -35 20 -38 26 -11 18 10 10 40 -16z m475 5 c0
-6 -6 -23 -14 -37 -8 -15 -26 -61 -42 -102 -15 -41 -31 -79 -36 -85 -13 -15
-9 26 7 75 34 101 85 191 85 149z m131 -86 c13 -16 11 -16 -16 1 -40 25 -75
57 -87 81 -12 20 78 -50 103 -82z m-3705 40 c-10 -10 -19 5 -10 18 6 11 8 11
12 0 2 -7 1 -15 -2 -18z m3085 10 c13 -15 12 -15 -8 -4 -24 12 -29 21 -14 21
5 0 15 -7 22 -17z m-1023 -31 c15 4 19 2 15 -8 -3 -8 -8 -14 -12 -14 -13 0
-51 31 -51 42 0 7 6 4 14 -7 8 -12 20 -16 34 -13z m4021 -23 c-6 -12 -27 -36
-46 -55 -58 -57 -56 -41 6 34 37 45 59 56 40 21z m-2443 -21 l29 -31 -32 22
c-35 23 -50 41 -35 41 4 0 21 -14 38 -32z m-2174 2 c13 0 32 -8 43 -17 15 -12
16 -14 3 -10 -9 3 -32 9 -52 12 -19 4 -41 14 -48 23 -11 13 -10 14 9 4 12 -7
32 -12 45 -12z m689 -48 c-7 -2 -18 1 -23 6 -8 8 -4 9 13 5 13 -4 18 -8 10
-11z m1444 -12 c16 -17 16 -20 3 -15 -9 4 -19 13 -22 21 -7 19 -2 18 19 -6z
m-1365 -67 c0 -45 -5 -40 -13 10 -3 22 -2 35 4 32 5 -4 9 -22 9 -42z m-665
-32 c-22 -44 -27 -38 -7 9 9 21 18 35 20 30 2 -5 -4 -22 -13 -39z m657 -51 c3
-16 1 -30 -4 -30 -4 0 -8 14 -8 30 0 17 2 30 4 30 2 0 6 -13 8 -30z m-685 -22
c-3 -7 -5 -2 -5 12 0 14 2 19 5 13 2 -7 2 -19 0 -25z m3333 -74 c-61 -104
-123 -186 -200 -268 -58 -61 -137 -122 -147 -112 -3 3 8 13 25 23 26 15 37 30
46 63 0 3 19 22 41 43 28 27 34 37 20 34 -11 -3 -31 -9 -45 -12 -14 -4 0 7 30
25 30 17 66 42 80 56 l25 26 -33 -17 c-52 -26 -47 -12 8 24 51 33 80 62 41 41
-44 -23 -41 -4 3 28 26 17 55 46 65 63 17 28 81 81 89 74 2 -2 -20 -43 -48
-91z m-3150 -6 c0 -5 -6 -5 -17 0 -9 6 -28 6 -42 2 -48 -15 -90 -19 -96 -10
-6 9 20 14 56 11 8 -1 26 2 39 7 27 10 60 5 60 -10z m-5 -74 c-18 -35 -20 -20
-3 27 7 20 14 27 15 18 2 -8 -3 -28 -12 -45z m25 -44 c0 -5 -5 -10 -11 -10 -5
0 -7 5 -4 10 3 6 8 10 11 10 2 0 4 -4 4 -10z m2917 -36 c-3 -3 -12 -4 -19 -1
-8 3 -5 6 6 6 11 1 17 -2 13 -5z m98 -125 c-13 -61 -51 -116 -100 -141 -14 -7
-11 -1 9 21 30 32 44 71 26 71 -6 0 -3 14 6 33 18 34 53 77 65 77 3 0 1 -27
-6 -61z m2225 -114 c0 -8 -4 -15 -9 -15 -13 0 -22 16 -14 24 11 11 23 6 23 -9z
m-2476 -10 c-10 -8 -23 -14 -29 -14 -5 0 -1 6 9 14 11 8 24 15 30 15 5 0 1 -7
-10 -15z m171 -51 c-26 -21 -88 -54 -102 -54 -6 0 78 64 102 78 32 18 32 2 0
-24z m4399 -365 c-3 -5 -10 -7 -15 -3 -5 3 -7 10 -3 15 3 5 10 7 15 3 5 -3 7
-10 3 -15z m-7774 -274 c0 -8 -4 -15 -10 -15 -5 0 -10 7 -10 15 0 8 5 15 10
15 6 0 10 -7 10 -15z m1160 5 c0 -5 -4 -10 -10 -10 -5 0 -10 5 -10 10 0 6 5
10 10 10 6 0 10 -4 10 -10z m-1825 -259 c3 -5 1 -12 -5 -16 -5 -3 -10 1 -10 9
0 18 6 21 15 7z m3755 -261 c0 -5 -4 -10 -10 -10 -5 0 -10 5 -10 10 0 6 5 10
10 10 6 0 10 -4 10 -10z m4045 -530 c-5 -8 -11 -8 -17 -2 -6 6 -7 16 -3 22 5
8 11 8 17 2 6 -6 7 -16 3 -22z m-6135 -15 c0 -8 -4 -15 -10 -15 -5 0 -10 7
-10 15 0 8 5 15 10 15 6 0 10 -7 10 -15z m-3714 -392 c-10 -10 -19 5 -10 18 6
11 8 11 12 0 2 -7 1 -15 -2 -18z"/>
<path d="M5600 8350 c0 -5 5 -10 10 -10 6 0 10 5 10 10 0 6 -4 10 -10 10 -5 0
-10 -4 -10 -10z"/>
<path d="M5562 8304 c10 -10 20 -16 22 -13 3 3 -5 11 -17 18 -21 13 -21 12 -5
-5z"/>
<path d="M5451 8223 c-1 -7 -9 -13 -18 -13 -13 0 -14 -3 -5 -12 15 -15 37 3
29 24 -4 9 -6 10 -6 1z"/>
<path d="M5558 8223 c6 -2 18 -2 25 0 6 3 1 5 -13 5 -14 0 -19 -2 -12 -5z"/>
<path d="M5495 8180 c3 -5 8 -10 11 -10 2 0 4 5 4 10 0 6 -5 10 -11 10 -5 0
-7 -4 -4 -10z"/>
<path d="M5590 8169 c0 -5 5 -7 10 -4 6 3 10 8 10 11 0 2 -4 4 -10 4 -5 0 -10
-5 -10 -11z"/>
<path d="M5655 8170 c3 -5 8 -10 11 -10 2 0 4 5 4 10 0 6 -5 10 -11 10 -5 0
-7 -4 -4 -10z"/>
<path d="M5524 8158 c-4 -6 -3 -8 4 -4 6 3 13 2 17 -4 3 -5 11 -10 17 -10 7 0
6 6 -2 15 -15 18 -26 19 -36 3z"/>
<path d="M4995 7519 c8 -11 95 -63 99 -58 2 2 -21 18 -50 36 -30 17 -52 27
-49 22z"/>
<path d="M3665 7420 c3 -5 8 -10 11 -10 2 0 4 5 4 10 0 6 -5 10 -11 10 -5 0
-7 -4 -4 -10z"/>
<path d="M3980 7290 c0 -5 7 -10 16 -10 14 0 15 -2 3 -17 -13 -16 -12 -17 4
-4 13 10 15 17 6 27 -13 16 -29 18 -29 4z"/>
<path d="M3220 7230 c8 -5 20 -10 25 -10 6 0 3 5 -5 10 -8 5 -19 10 -25 10 -5
0 -3 -5 5 -10z"/>
<path d="M3585 7067 c-37 -42 -22 -51 22 -12 25 22 26 24 8 24 -11 0 -25 -5
-30 -12z"/>
<path d="M3955 6990 c3 -5 8 -10 11 -10 2 0 4 5 4 10 0 6 -5 10 -11 10 -5 0
-7 -4 -4 -10z"/>
<path d="M3970 6960 c0 -5 5 -10 11 -10 6 0 9 -5 7 -12 -6 -18 36 -140 47
-136 15 5 8 35 -21 106 -23 55 -44 80 -44 52z"/>
<path d="M4110 6870 c0 -7 14 -29 32 -48 l31 -36 -7 29 c-3 17 -8 37 -10 45
-3 18 -46 27 -46 10z"/>
<path d="M3752 6746 c-15 -22 -31 -76 -47 -161 -14 -70 -29 -133 -34 -139 -5
-6 -11 -27 -13 -46 -6 -69 53 -24 74 56 37 144 61 304 47 319 -3 2 -15 -11
-27 -29z"/>
<path d="M4117 6745 c6 -32 11 -41 17 -34 2 2 -2 18 -10 34 l-13 30 6 -30z"/>
<path d="M2900 6715 c-7 -8 -8 -15 -2 -15 5 0 15 7 22 15 7 8 8 15 2 15 -5 0
-15 -7 -22 -15z"/>
<path d="M4224 6627 c1 -64 7 -101 15 -110 11 -10 12 -4 6 31 -6 35 -4 41 8
36 8 -3 18 -1 21 5 10 15 -11 85 -34 113 l-19 23 3 -98z"/>
<path d="M3016 6685 c-3 -9 -6 -37 -6 -61 0 -34 -4 -44 -16 -44 -11 0 -14 -5
-10 -16 3 -9 6 -23 7 -32 0 -11 2 -12 6 -4 8 20 21 14 31 -15 7 -20 8 3 4 77
-2 58 -6 106 -7 108 -1 2 -5 -4 -9 -13z"/>
<path d="M4268 6490 c-13 -27 -15 -47 -9 -90 l7 -55 13 43 c7 24 11 64 9 90
l-3 47 -17 -35z"/>
<path d="M3577 6216 c-3 -8 -4 -25 -1 -38 3 -13 8 -42 11 -66 3 -23 10 -45 14
-48 5 -3 9 -18 9 -34 0 -36 10 -61 21 -54 14 8 10 54 -6 70 -9 9 -15 34 -15
62 0 55 -24 132 -33 108z"/>
<path d="M3667 6193 c-11 -11 -8 -91 4 -98 7 -5 9 11 7 49 -2 31 -3 56 -4 56
0 0 -4 -3 -7 -7z"/>
<path d="M3390 6120 c0 -43 21 -110 35 -110 12 0 -6 132 -20 146 -13 14 -15
10 -15 -36z"/>
<path d="M3736 6139 c-9 -46 -7 -87 4 -94 6 -3 10 -1 10 4 0 6 9 11 21 11 18
0 20 5 17 53 -3 44 -6 52 -24 55 -17 2 -23 -4 -28 -29z"/>
<path d="M3820 5952 c0 -16 30 -75 36 -70 2 3 -5 22 -16 43 -11 22 -20 34 -20
27z"/>
<path d="M3230 5899 c-16 -30 -8 -31 13 -3 10 13 13 24 8 24 -6 0 -15 -9 -21
-21z"/>
<path d="M3700 5900 c0 -5 4 -19 9 -32 6 -13 13 -44 16 -71 7 -56 25 -53 25 4
0 44 -23 109 -39 109 -6 0 -11 -4 -11 -10z"/>
<path d="M3250 5871 c-8 -16 -5 -23 17 -41 33 -26 72 -36 91 -23 21 13 27 33
10 33 -8 0 -25 11 -38 25 -28 30 -65 32 -80 6z"/>
<path d="M3651 5806 c-1 -26 2 -37 9 -30 6 6 6 21 1 39 -9 30 -9 30 -10 -9z"/>
<path d="M3842 5800 c0 -14 2 -19 5 -12 2 6 2 18 0 25 -3 6 -5 1 -5 -13z"/>
<path d="M3691 5763 c-7 -8 -11 -16 -8 -19 2 -2 10 2 17 11 17 20 9 27 -9 8z"/>
<path d="M7280 6967 c0 -2 19 -17 43 -32 23 -16 37 -22 30 -14 -12 15 -73 53
-73 46z"/>
<path d="M3255 5290 c-3 -16 -2 -37 4 -47 8 -14 10 -8 11 30 0 54 -5 60 -15
17z"/>
<path d="M3411 5294 c-19 -24 -29 -64 -16 -64 7 0 47 81 42 86 -3 3 -14 -7
-26 -22z"/>
<path d="M3360 5142 c0 -39 3 -52 13 -49 14 5 12 60 -3 86 -7 11 -9 1 -10 -37z"/>
<path d="M3447 5043 c-9 -38 -19 -84 -22 -103 -5 -33 -4 -33 13 10 17 39 38
160 29 160 -2 0 -11 -30 -20 -67z"/>
<path d="M3365 5049 c-4 -6 -5 -12 -2 -15 2 -3 7 2 10 11 7 17 1 20 -8 4z"/>
<path d="M3295 5020 c-10 -12 -20 -42 -23 -72 l-5 -53 23 20 c41 36 67 125 37
125 -8 0 -22 -9 -32 -20z"/>
<path d="M3367 4984 c-21 -42 -27 -69 -27 -119 0 -35 4 -66 9 -69 5 -3 14 31
21 77 6 45 16 99 22 121 14 56 5 53 -25 -10z"/>
<path d="M3518 4990 c-3 -16 -1 -30 4 -30 4 0 8 14 8 30 0 17 -2 30 -4 30 -2
0 -6 -13 -8 -30z"/>
<path d="M3466 4841 c-4 -24 -5 -46 -2 -48 7 -7 19 63 14 79 -3 7 -8 -7 -12
-31z"/>
<path d="M3211 4658 c-21 -66 -23 -102 -7 -123 11 -14 15 -16 16 -6 0 8 9 25
21 37 16 17 19 26 11 41 -8 13 -7 22 5 35 19 21 10 48 -16 48 -13 0 -23 -10
-30 -32z"/>
<path d="M2911 4459 c12 -54 16 -59 39 -59 21 0 34 32 28 71 -2 20 -10 25 -40
27 l-36 3 9 -42z"/>
</g>
</svg>
