<svg xmlns="http://www.w3.org/2000/svg" xmlns:xlink="http://www.w3.org/1999/xlink" xmlns:lucid="lucid" width="1320" height="801.5"><g transform="translate(-300 140.5)" lucid:page-tab-id="0_0"><path d="M0-500h2000v1500H0z" fill="#fff"/><path d="M580 86a6 6 0 0 1 6-6h728a6 6 0 0 1 6 6v368a6 6 0 0 1-6 6H586a6 6 0 0 1-6-6z" stroke="#8c4fff" stroke-width="3" fill="#fff" fill-opacity="0"/><path d="M580 80h56v56h-56V80z" stroke="#000" stroke-opacity="0" fill="#8c4fff"/><path d="M623.37 109.45l-4.12-1.77v14.68c3.57-.48 4.12-4.16 4.12-4.3v-8.6zm-5.53 12.95v-14.72l-4.23 1.77v8.68c0 .07.63 3.86 4.24 4.27zm.43-16.45c.2-.07.4-.07.55.04l5.53 2.34c.27.1.43.37.43.63v9.16c-.24 2.02-1.88 5.7-6.35 5.7-4.3 0-5.96-3.68-6.24-5.6v-9.26c0-.26.2-.52.43-.63l5.64-2.4zm7.92.92l-7.66-3.38-7.76 3.26v9.97c0 .08-.04 4 2.36 6.48 1.25 1.33 3.05 2 5.3 2 2.26 0 4.02-.67 5.36-2 2.43-2.46 2.4-6.43 2.4-6.47v-9.86zm-1.42 17.3c-1.57 1.6-3.7 2.42-6.35 2.42-2.63 0-4.75-.82-6.3-2.44-2.84-2.87-2.72-7.28-2.72-7.47v-10.42c0-.3.17-.55.44-.62l8.43-3.57c.2-.08.4-.08.55 0l8.35 3.67c.27.1.43.37.43.62v10.33c0 .2.04 4.56-2.82 7.43zm-29.4-10.23h11.2v1.4h-11.2c-3.92 0-6.75-2.84-6.98-7.03v-.5c0-3.54 1.84-5.93 5.33-7 0-.3-.04-.66-.04-.88 0-4.1 2.23-7.66 5.64-9.05 4.62-1.88 9.84-1.25 12.74 1.54 1.05 1.04 1.88 2.18 2.47 3.5.86-.62 1.96-.9 3.3-.84 2.5.1 4.42 2.4 4.8 5.6 2.1.18 3.5 1.25 4.2 3.23l-1.3.47c-.58-1.62-1.67-2.36-3.56-2.36-.36.02-.67-.24-.67-.65-.2-3.23-2-4.82-3.57-4.9-1.33-.06-2.3.3-2.9 1.1-.16.2-.4.3-.67.27-.24-.04-.48-.22-.56-.44-.58-1.55-1.4-2.83-2.54-3.94-2.5-2.43-7.14-2.94-11.25-1.25-2.87 1.17-4.75 4.2-4.75 7.72 0 .37.04.95.08 1.32.04.37-.15.7-.5.78-3.22.8-4.87 2.72-4.87 5.77v.4c.2 3.5 2.4 5.74 5.58 5.74z" stroke="#000" stroke-opacity="0" fill="#fff"/><use xlink:href="#a" transform="matrix(1,0,0,1,651,100) translate(0 17.77777777777778)"/><path d="M640 166a6 6 0 0 1 6-6h628a6 6 0 0 1 6 6v268a6 6 0 0 1-6 6H646a6 6 0 0 1-6-6z" stroke="#7aa116" stroke-width="3" fill="#fff" fill-opacity="0"/><path d="M640 160h56v56h-56v-56z" stroke="#fff" stroke-opacity="0" fill="#7aa116"/><path d="M683.38 182.18c-.15-.17-.34-.25-.56-.25h-5.15v-5.58c-.03-2.54-.96-4.7-2.84-6.4-1.9-1.83-4.15-2.75-6.77-2.75-2.65 0-4.9.83-6.8 2.62-1.9 1.7-2.87 3.87-2.9 6.4v5.66h-5.15c-.24 0-.43.1-.58.25-.16.17-.22.34-.22.6V208c0 .43.34.8.8.8h29.6c.46 0 .8-.37.8-.8v-25.28c0-.2-.06-.38-.22-.54zm-23.46-5.9c.03-2.13.8-3.88 2.37-5.3 1.6-1.5 3.52-2.2 5.73-2.2 2.22 0 4.12.75 5.7 2.25 1.54 1.4 2.32 3.2 2.32 5.32v5.58H659.9zm22.1 30.94h-28.03v-23.7h28z" stroke="#fff" stroke-opacity="0" fill="#fff"/><path d="M667.2 197.3v6.25h1.6v-6.23c2.13-.4 3.62-2.2 3.63-4.35 0-2.43-1.97-4.4-4.4-4.43-2.2-.03-4.06 1.5-4.44 3.68-.42 2.4 1.2 4.68 3.6 5.1zm.82-7.15c.78 0 1.44.27 2 .82.54.56.82 1.22.8 2 .03 1.55-1.2 2.8-2.74 2.82h-.06c-1.56.1-2.92-1.06-3.04-2.62-.12-1.56 1.05-2.93 2.6-3.03.16-.02.28-.02.44 0z" stroke="#fff" stroke-opacity="0" fill="#fff"/><use xlink:href="#b" transform="matrix(1,0,0,1,711,180) translate(0 17.77777777777778)"/><use xlink:href="#c" transform="matrix(1,0,0,1,711,180) translate(62.283950617283956 17.77777777777778)"/><path d="M420-140h80v80h-80v-80z" stroke="#000" stroke-opacity="0" fill="#ed7100"/><path d="M458.8-102.4c-.47.3-.78.8-.78 1.38v27.78l-21-11.75v-27.26l23.55-13.7 20.9 10.4-22.68 13.17zm25.1-13.16c0-.58-.3-1.15-.86-1.43l-21.65-10.77c-.52-.3-1.13-.3-1.64 0l-23.9 13.86c-.5.27-.82.84-.82 1.42v27.72c0 .57.3 1.14.8 1.42l21.78 12.15c.2.18.5.24.76.24.3 0 .56-.06.8-.23.52-.27.83-.8.83-1.36v-28.23l23.1-13.4c.5-.28.8-.8.8-1.36zm.06 30.63L465-73.3v-10.38l9.9-6.44.04-.4c.05-.12.05-.12.05-.7v-12.42l9-5.2-.04 23.9zm1.23-25.96c-.47-.33-1.14-.33-1.6 0l-9.58 5.55c-.3.17-1 .5-1 1.3v12.78l-9.14 5.88c-.56.35-.86.86-.86 1.44v11.3c0 .56.3 1.07.8 1.4.27.13.57.24.88.24.25 0 .56-.1.8-.23l19.7-12.03c.44-.3.75-.86.75-1.43l.05-24.82c0-.57-.3-1.08-.8-1.37z" stroke="#000" stroke-opacity="0" fill="#fff"/><use xlink:href="#d" transform="matrix(1,0,0,1,390,-51) translate(8.086419753086425 17.77777777777778)"/><use xlink:href="#e" transform="matrix(1,0,0,1,390,-51) translate(88.76543209876544 17.77777777777778)"/><path d="M1360-140h80v80h-80v-80z" stroke="#000" stroke-opacity="0" fill="#e7157b"/><path d="M1413.7-74.02c-2.16 0-3.9-1.73-3.9-3.92 0-2.12 1.74-3.86 3.9-3.86s3.9 1.74 3.9 3.86c0 2.2-1.74 3.92-3.9 3.92zm-8.53-16.96h-10.3l-5.2-9.02 5.2-9.02h10.3l5.18 9.02-5.18 9.02zm-17.5-27.22c-2.16 0-3.88-1.74-3.88-3.86 0-2.2 1.7-3.92 3.87-3.92 2.1 0 3.9 1.73 3.9 3.92 0 2.12-1.8 3.86-3.9 3.86zm26.03 34.38c-.75 0-1.46.17-2.1.4l-4.22-7.17-.2.12 5.17-9.02c.16-.33.16-.67 0-1l-5.72-9.97c-.22-.34-.54-.5-.87-.5h-10.47l.04-.06-3.9-6.55c1.3-1.12 2.12-2.7 2.12-4.48 0-3.3-2.65-5.94-5.9-5.94-3.23 0-5.87 2.63-5.87 5.94 0 3.24 2.63 5.88 5.87 5.88.7 0 1.4-.17 2.1-.4l3.57 6.16-5.67 9.92c-.2.33-.2.67 0 1l5.73 9.97c.16.34.48.5.86.5h11.72l3.9 6.6c-1.25 1.13-2.06 2.7-2.06 4.5 0 3.3 2.64 5.93 5.88 5.93 3.24 0 5.9-2.63 5.9-5.94 0-3.24-2.66-5.88-5.9-5.88zm5.94-24.08c-2.16 0-3.9-1.73-3.9-3.92 0-2.12 1.74-3.92 3.9-3.92 2.1 0 3.9 1.8 3.9 3.92 0 2.2-1.8 3.92-3.9 3.92zm7.3 7.4l-3.8-6.56c1.42-1.12 2.33-2.8 2.33-4.76 0-3.24-2.6-5.88-5.83-5.88-.86 0-1.62.17-2.32.45l-3.08-5.32c-.2-.33-.54-.5-.86-.5H1401v1.96h11.78l2.87 4.97c-1.2 1.07-1.9 2.63-1.9 4.3 0 3.26 2.65 5.95 5.9 5.95.6 0 1.18-.1 1.72-.28l3.5 6.16-4.96 8.62 1.74 1 5.3-9.12c.15-.33.15-.67 0-1zm-45.7 15.73c-2.1 0-3.88-1.73-3.88-3.92 0-2.12 1.78-3.85 3.9-3.85 2.15 0 3.88 1.73 3.88 3.86 0 2.2-1.73 3.93-3.9 3.93zm3.3 1c1.57-1.05 2.6-2.85 2.6-4.92 0-3.24-2.65-5.87-5.9-5.87-.9 0-1.77.23-2.58.62l-3.46-6.05 5.72-10.02-1.72-1-6.05 10.52c-.16.33-.16.67 0 1l3.9 6.72c-1.04 1.07-1.63 2.52-1.63 4.1 0 3.3 2.6 5.93 5.83 5.93.48 0 .97-.06 1.46-.17l3.14 5.5c.2.32.54.5.86.5h12.37v-1.97h-11.77l-2.76-4.86z" stroke="#000" stroke-opacity="0" fill="#fff"/><use xlink:href="#f" transform="matrix(1,0,0,1,1330,-51) translate(32.43827160493827 17.77777777777778)"/><use xlink:href="#g" transform="matrix(1,0,0,1,1330,-51) translate(13.950617283950614 49.77777777777778)"/><path d="M910 260h80v80h-80v-80z" stroke="#000" stroke-opacity="0" fill="#ed7100"/><path d="M962.04 316.6v-4.86l3-1.18v4.85l-3 1.2zm-5-6.04l3 1.18v4.85l-3-1.2v-4.84zm-6 13.02v-4.85l3-1.17v4.84l-3 1.18zm-5-6.02l3 1.17v4.85l-3-1.18v-4.84zm-6-.97v-4.86l3-1.18v4.85l-3 1.2zm-5-6.04l3 1.18v4.85l-3-1.2v-4.84zm4-2.4l2.3.92-2.3.92-2.3-.92 2.3-.9zm11 7l2.3.92-2.3.92-2.3-.92 2.3-.92zm11-7l2.3.92-2.3.92-2.3-.92 2.3-.9zm5.35-.05l-5-1.98c-.2-.1-.5-.1-.7 0l-5 2c-.4.15-.66.56-.66.96V315l-4.65-1.88c-.2-.06-.5-.06-.7 0l-4.66 1.88v-5.92c0-.4-.25-.8-.65-.97l-5-1.98c-.2-.1-.5-.1-.7 0l-5 2c-.4.15-.66.56-.66.96v7c0 .4.25.76.65.92l5 2c.1.04.2.1.34.1.15 0 .25-.06.35-.12l4.64-1.83v5.92c0 .4.25.76.65.92l5 2.03c.1.05.2.05.34.05.15 0 .25 0 .35-.05l5-2.04c.4-.17.64-.52.64-.93v-5.92l4.65 1.84c.1.04.2.1.34.1.15 0 .25-.06.35-.12l5-2c.4-.14.64-.5.64-.9v-7c0-.4-.25-.8-.65-.97zm8.64-12.08c0 5.82-12.9 8.98-25 8.98s-25-3.16-25-8.98c0-2.8 3.1-5.26 8.7-6.94l.6 1.88c-4.5 1.38-7.3 3.27-7.3 5.06 0 3.26 9.45 7 23 7s23-3.74 23-7c0-1.8-2.8-3.68-7.3-5.06l.6-1.88c5.6 1.68 8.7 4.13 8.7 6.94zm-25-18.9l10.2 3.94-10.2 3.93-10.2-3.94 10.2-3.93zm10.6 19.76c-1.9.87-5.05 1.84-9.6 2v-12.15l11-4.24v12.2c0 .96-.55 1.83-1.4 2.2zm-22.6-2.2v-12.2l11 4.25v12.15c-4.55-.16-7.7-1.13-9.6-2-.85-.35-1.4-1.22-1.4-2.2zm.6 4.04c2.2.97 5.95 2.15 11.4 2.15s9.2-1.18 11.4-2.15c1.6-.7 2.6-2.3 2.6-4.03v-13.64c0-.4-.25-.8-.65-.97l-13-5c-.2-.06-.5-.06-.7 0l-13 5c-.4.15-.66.55-.66.96v13.63c0 1.73 1 3.3 2.6 4.02z" stroke="#000" stroke-opacity="0" fill="#fff"/><use xlink:href="#h" transform="matrix(1,0,0,1,880,349) translate(10.493827160493822 17.77777777777778)"/><use xlink:href="#i" transform="matrix(1,0,0,1,880,349) translate(63.51851851851851 17.77777777777778)"/><path d="M420 520h80v80h-80v-80z" stroke="#000" stroke-opacity="0" fill="#e7157b"/><path d="M475.06 566.76c0-3.95-3.2-7.1-7.16-7.1-3.92 0-7.12 3.15-7.12 7.1 0 3.9 3.2 7.05 7.12 7.05 3.97 0 7.16-3.14 7.16-7.04m2.02 0c0 5-4.1 9.05-9.18 9.05-5.04 0-9.13-4.04-9.13-9.04 0-5.05 4.1-9.1 9.13-9.1 5.1 0 9.18 4.05 9.18 9.1m8.46 13.65l-7.06-6.24c-.56.8-1.18 1.5-1.9 2.15l7 6.3c.56.5 1.5.46 2-.1.57-.6.52-1.54-.04-2.1m-17.64-2.8c6.04 0 10.97-4.84 10.97-10.84s-4.93-10.9-10.97-10.9c-6 0-10.92 4.9-10.92 10.9s4.92 10.85 10.92 10.85m19.2 6.2c-.67.76-1.62 1.16-2.57 1.16-.84 0-1.68-.3-2.3-.9l-7.28-6.5c-2.07 1.3-4.42 2.05-7.05 2.05-7.12 0-12.94-5.74-12.94-12.84 0-7.15 5.82-12.9 12.94-12.9 7.16 0 13 5.75 13 12.9 0 2-.52 3.95-1.36 5.65l7.34 6.56c1.4 1.25 1.5 3.45.22 4.85m-45.8-34.44c0 .5 0 1.05.05 1.55.06.26-.05.56-.22.76-.17.2-.34.3-.56.35-2.47.6-6.55 2.56-6.55 8.3 0 4.36 2.4 6.76 4.42 8 .73.4 1.5.66 2.4.66l12.1.05v1.96H440.8c-1.24 0-2.42-.35-3.42-.95-2.02-1.24-5.38-4.14-5.38-9.7 0-6.7 4.6-9.14 7.28-10.04v-.9c0-5.45 3.7-11.15 8.68-13.2 5.77-2.4 11.87-1.2 16.35 3.2 1.4 1.35 2.53 3.05 3.43 4.95 1.17-.94 2.63-1.5 4.14-1.5 3.03 0 6.4 2.26 7 7.2 2.8.66 8.74 2.9 8.74 10.36 0 3-.94 5.45-2.8 7.35l-1.4-1.4c1.46-1.5 2.2-3.5 2.2-5.94 0-6.5-5.5-8.15-7.85-8.55-.28 0-.5-.14-.67-.4-.17-.2-.22-.5-.17-.74-.32-4.05-2.73-5.85-5.03-5.85-1.4 0-2.74.7-3.7 1.9-.22.3-.55.46-.95.4-.33-.04-.67-.3-.78-.64-.84-2.25-2.02-4.2-3.53-5.65-3.85-3.84-9.17-4.84-14.16-2.8-4.2 1.76-7.44 6.7-7.44 11.36" stroke="#000" stroke-opacity="0" fill="#fff"/><use xlink:href="#f" transform="matrix(1,0,0,1,390,609) translate(32.43827160493827 17.77777777777778)"/><use xlink:href="#j" transform="matrix(1,0,0,1,390,609) translate(14.814814814814824 49.77777777777778)"/><path d="M1390.02 600h-2.3l-8.44-.7-6.42-1.23-4.38-1.4-2.82-1.23-1.86-1.03-1.2-.9-.83-.75-.6-.7-.43-.54-.26-.55-.2-.48-.16-.48-.06-.5-.03-.48v-58.07h30z" stroke="#000" stroke-opacity="0" fill="#3998c5"/><path d="M1420.16 589.02v.14l-.03.48-.1.5-.14.47-.25.5-.3.54-.46.63-.65.7-.92.8-1.37.9-2 1.12-3.18 1.23-4.78 1.38-6.95 1.12-8.87.48h-.5v-69.05h30.48z" stroke="#000" stroke-opacity="0" fill="#59b3d8"/><path d="M1398.55 520.46l7.04 1.14 4.92 1.4 3.3 1.3 2.1 1.13 1.4.94.9.8.66.7.42.58.36.52.18.5.18.47.06.44.06.43v.58l-.12.44-.12.46-.18.48-.3.55-.42.58-.54.68-.84.76-1.26.9-1.87 1.1-2.96 1.24-4.45 1.38-6.44 1.25-8.24.67-2.3.02-8.53-.47-7.04-1.14-4.94-1.4-3.3-1.3-2.1-1.14-1.4-.94-.9-.8-.66-.7-.42-.58-.36-.52-.18-.5-.18-.47-.06-.44-.06-.42V530.5l.12-.43.12-.46.18-.47.3-.55.42-.57.54-.67.85-.76 1.26-.9 1.85-1.07 2.95-1.27 4.45-1.38 6.44-1.25 8.23-.68 2.28-.02z" stroke="#000" stroke-opacity="0" fill="#fff"/><path d="M1400 523.7l6.44 1.3 3.4 1.2 1.78.9 1 .7.58.56.33.44.24.4.15.34.1.32.04.3v.46l-.1.3-.1.35-.23.37-.3.44-.47.5-.8.64-1.45.83-2.63 1.1-5.13 1.3-8.82 1-3.84.1-10.02-.66-6.42-1.32-3.4-1.18-1.78-.92-1-.7-.58-.54-.34-.45-.24-.4-.14-.34-.1-.33-.05-.3v-.45l.1-.32.1-.33.24-.38.3-.44.47-.5.83-.63 1.43-.83 2.64-1.08 5.13-1.3 8.83-1.02 3.83-.1z" stroke="#000" stroke-opacity="0" fill="#7fb900"/><path d="M1408.94 534.64l2.24-1.05 1.58-1.15.95-1.2.2-.95v-.32l-.1-.32-.1-.34-.22-.37-.3-.43-.47-.5-.8-.64-1.44-.84-2.67-1.08-5.13-1.3-8.8-1-3.86-.1-9.98.65-6.36 1.3-3.34 1.2-1.77.9-1 .7-.58.55-.33.45-.24.4-.14.34-.1.33-.05.3v.13l.4 1.27 1.14 1.22 1.72 1.1 1.72.74 4.78-1.42 10.7-1.24 3.45-.07 10.14.68 8.8 2.06z" stroke="#000" stroke-opacity="0" fill="#b7d332"/><path d="M1400.84 550.28l2.53.77 2.1 1.28 1.74 1.8.1.06.17.34.2.55.17.92-.03 1.9-.66 3.88-2.1 5.97-3.16 5.7.1.2.6.46 1.54.28 2.87-.3.92.58-2.24 1.63-1.26.43-1.3.24-1.4.03-.4-.03-.52-.12-.97.66-.3 2.4-.26.83-.03.74-.23 1-.2 1.52-.1.65-.43 1.4-.82 1.2-.45.38-1.27.78-1.45.4-.5.08-2.15-.35-1.04-1.24-.5-1.3-.1-.54-.2-1.32-.07-1.32.08-1.32.04-.73-.07-1.36-.26-1.3-.48-1.3.08-.3-1.2 1.2-1.45.74-.63.16-1.34.07-1.3-.23-1.3-.78 1.37-.96 1.4-.35 1.1-.66 1-1.25-.07-.43.03-.43-.1.07-.37.04-1.38-.23-1.27-.58-.56.6-1.34 1.5-1.67 1.97-.22.23-.52.46-.4.28-.38.1-.34.05h-.3l-.37-.13-.37-.2-.56-.38-.75-.86-1.3-2.25-2.58-7.7-1.27-6.63.1-3.1.57-2.05.75-1.4.9-1 1.07-.82 1.46-.6 2.12-.34 3.4.2 4.24 1.16.97-.62 1.3-.54 1.35-.3 1.4-.05h.57l1.3.13 1.38.2.34-.13 3.65-.62z" stroke="#000" stroke-opacity="0" fill="#336790"/><path d="M1386.16 561.35l.36.07.33.14.3.27v.27l-.16.27-.25.2-.3.14-.3.05h-.14l-.74-.42-.27-.6v-.07l.04-.06.1-.1.5-.17zM1400.04 561.07l.26.1.1.2-.06.28-.18.23-.3.25-.38.13h-.13l-.3-.03-.25-.12-.22-.18-.16-.28.27-.37.65-.2.35-.04z" stroke="#000" stroke-opacity="0" fill="#fff"/><path d="M1399.1 549.6l.73.03 1.37.2 1.3.36 1.27.5 1.26.76 1.34 1.04 1.14 1.27.17.24.34.8.24 1.84-.7 5.07-.7 2.48-4.5 9.24.12.12.65.24 1.4.16 2.36-.32.85-.08.73.52-.73 1.43-1.83 1.15-1.1.4-1.3.24-1.4.07-.87-.04-.88-.24-.95 7.44-.12.68-.46 1.4-.9 1.2-.45.4-1.3.74-1.45.32-.65.12-.7.04-1.3-.24-1.18-.63-.9-1-.6-1.2-.6-8.92-1.22.9-1.42.57-.46.08-1.34.08-1.3-.28-1.1-.48-.58-.9.6-.8 1.2-.4 1.75-.53.8-.8.24-.28.23-.28v-.24l-1.3-.2-1.23-.48-.6.64-1.2 1.36-1.52 1.8-.58.63-.73.43-.8.16-.83-.08-.27-.12-.5-.27-.6-.52-.85-1.08-1.42-2.67-2.48-7.93-1.07-5.82.15-3.35.73-2.4.95-1.54 1.24-1.12 2-.95 2.55-.53 2.6.16.87.16 1.34.27 1.3.36 1.3.43 1-.6 1.3-.5 1.38-.3 1.38-.03h.38l1.3.12 1.38.24.12-.05.34-.12 1.3-.32 1.34-.2 1.3-.1zm-10.52 1.38l-1.3.36-1.34.68-1.2.96-1.02 1.47-1.38 3.07-.53 3.35.66-.36 1.34-.5 1.37-.33.58-.08.6.07.58.16.54.28.46.4.34.45.3.56.16.56.38 2.36-.06 3.3-.92 2.9-.2.45-.18.44-.08.25-.35.88-.2.95.33-.12h.34l.4.04.37.16.34.24.3.32.24.36.2.4.03.2.04.2.02.1v.1l.46 10.43.23.7.4.6.46.47.57.4.65.28.65.16.73-.03.65-.16h.16l1.42-.35 1.18-.88.12-.12.8-1.23.3-1.44 1.04-8.25v-.2l.6-2 1.16-.55h.08l-.2-.32-.23-.28-.72-1-.53-1.07-.2-.4-.3-.5-1.34-2.55-1.22-3.5-.06-1.53.15-.87.33-.6.3-.4 1.04-.6 1.42-.28 1.78.04-.45-1.1-.7-1.4-.87-1.27-1-1.2-1.03-.95-1.3-.96-1.45-.76-.54-.24-1.3-.4-1.34-.24-1.34-.07h-.34zm-1.07 23.36l-.22.12-.27.24h.05l-.38.44-.27.32-.27.35-.96.77-1.87.52-.54.1-.53.3.5.27.53.2.35.12 1.34.1 1.3-.24 1.38-.67 1.07-1.1.1-.47-.03-.5-.27-.45-.38-.32-.08-.04-.27-.08zm-9.83-23.36l-1.37.2-1.34.4-1.23.68-.88.76-.88 1.27-.68 2-.24 3.6 2.06 9.42 2 5.18 1.37 2.2.68.63.46.2 1-.04 1-.85 1.17-1.43 1.28-1.4.84-.92-.27-.24-.27-.23-.84-1.08-.58-1.32-.22-1.3.03-1.37.04-.15.13-1.3.03-1.37v-1.3l-.07-1.37v-.12l.56-4.34 1.23-3.1 1.44-1.96.12-.12.15-.12-.72-.24-1.3-.36-1.34-.24-1.34-.2-1.34-.07zm24 23.2l-.16.04-.8.44-.26 1.5.07.05 1.05.2 1.34.05 1.32-.2 1.27-.4 1.1-.6.9-.83h-.22l-.22.04-1.04.28-1.34.12-1.34-.16-1.3-.4-.1-.08-.13-.08zm-17.38-13.43l-1.3.48-1.23.72v.23l.08 1.36v1.3l-.08 1.33-.12 1.3-.03 1.17.23 1.16.45 1.07.7.96.68.6.8.43.85.28.9.08.28-.9.32-.9.1-.23.17-.45.22-.48.57-1.43.4-2.3-.45-4.28-.15-.6-.38-.5-.5-.4-.58-.2h-.53zm10.44-9.88l1.07.5 1.42.9 1.27 1.03 1.17 1.15.04.08.93 1.24.8 1.27.6 1.36.5 1.43v.16l-.03.15v1.12l-.15 1.1-.15.93-.08.92.04 1.03.1 1.04.13.47.1 1.35-.1 1.36-.36 1.3-.53 1.3.12.15.16.16.1.14 4.56-10.16.92-4.1.04-2.43-.27-1-.3-.52-.62-.7-2.05-1.7-2.5-1.06-2.97-.48zm4.17 9.6l-.64.32-.5.43-.08.12-.2.48-.1.7.2 1.53 2.36 5.3.34.6.2.4.2.47.25.44.3-.84.32-1.3.03-1.37-.15-1.35-.1-1.07-.05-1.1.08-1 .1-.97.12-.9.08-.93-.7-.08-.68-.04h-.72z" stroke="#000" stroke-opacity="0" fill="#fff"/><path d="M1432.5 569.72l-.24 4.83 1.93 2 4.12-.3.56-.02 1.12 2.82v.9l-3.26 2.98-.03 2.82 3.14 2.76.16.14v.9l-1.18 2.8-4.72-.24-1.96 1.97.3 4.22.04.56-2.8 1.14h-.87l-2.9-3.33-2.74-.03-2.74 3.2-.12.16h-.84l-2.8-1.2.28-4.83-1.92-2-4.17.3-.53.05-1.4-3.5 3.55-3.23v-2.8l-3.14-2.8-.4-.37 1.42-3.46 4.73.28 1.96-2-.28-4.22-.04-.54 3.42-1.44 3.14 3.62h2.77l2.7-3.2.37-.42zm-8.88 6.9l-1.86.5-1.7.98-1.4 1.4-1 1.78-.53 1.87-.03 2.03.5 2 1 1.74 1.4 1.43 1.67 1.02.1.03 1.85.5h1.93l1.9-.5 1.7-.98 1.4-1.4 1-1.78.53-1.84.03-2.03-.52-2-.96-1.78-1.4-1.43-1.68-1.02-.13-.03-1.85-.5z" stroke="#000" stroke-opacity="0" fill="#a0a1a2"/><use xlink:href="#k" transform="matrix(1,0,0,1,1330,609) translate(16.203703703703695 17.77777777777778)"/><use xlink:href="#l" transform="matrix(1,0,0,1,1330,609) translate(41.111111111111114 49.77777777777778)"/><path d="M1359.5-99.53h-293.48l-.88.07-.85.2-.8.34-.75.45-.66.56-.57.65-.45.74-.33.8-.2.84-.08.88v388l-.07 1-.24.98-.4.94-.52.87-.66.78-.77.66-.86.53-.94.4-1 .23-.98.08h-47.64v-.96h47.6l.88-.06.85-.2.8-.34.75-.45.66-.56.57-.65.45-.74.33-.8.2-.84.08-.88v-388l.07-1 .24-.98.4-.94.52-.87.66-.78.77-.66.86-.53.94-.4 1-.23.98-.07h293.52z" stroke="#3a414a" stroke-width=".05" fill="#3a414a"/><path d="M1360-99.53h-.5v-.94h.5z" fill="#3a414a"/><path stroke="#3a414a" stroke-width=".05" fill="#3a414a"/><path d="M1005.88 304.63L991.62 300l14.26-4.63z" fill="#3a414a"/><path d="M1006.36 305.3l-16.28-5.3 16.28-5.3zm-13.2-5.3l12.25 3.98v-7.96z" stroke="#3a414a" stroke-width=".05" fill="#3a414a"/><path d="M1395 300.42l1 .23.94.4.87.52.78.66.66.77.53.87.4.94.23 1 .07 1v197.5h-.94V306.84l-.07-.88-.2-.84-.34-.8-.45-.74-.56-.65-.65-.56-.74-.45-.8-.34-.84-.2-.88-.07H990.5v-.96h403.52z" stroke="#3a414a" stroke-width=".05" fill="#3a414a"/><path d="M990.5 301.3h-.5v-.96h.5z" fill="#3a414a"/><path stroke="#3a414a" stroke-width=".05" fill="#3a414a"/><path d="M1400 519.08l-4.63-14.27h9.27z" fill="#3a414a"/><path d="M1400 520.6l-5.3-16.27h10.6zm-3.98-15.3l3.98 12.24 3.98-12.25zM909.5 300.48H466.02l-.88.06-.85.2-.8.34-.75.45-.66.56-.57.65-.45.74-.33.8-.2.84-.07.88v197.6h-.96V305.98l.08-1 .24-.98.4-.94.52-.87.66-.78.77-.66.86-.53.94-.4 1-.23.98-.08H909.5z" stroke="#3a414a" stroke-width=".05" fill="#3a414a"/><path d="M910 300.48h-.5v-.96h.5z" fill="#3a414a"/><path stroke="#3a414a" stroke-width=".05" fill="#3a414a"/><path d="M460 518.38l-4.63-14.26h9.26z" fill="#3a414a"/><path d="M460 519.92l-5.3-16.28h10.6zm-3.98-15.33l3.98 12.25 3.98-12.26zM835-100.4l1 .24.94.4.87.52.78.66.66.77.53.86.4.94.23 1 .08.98v388l.06.88.2.85.34.8.45.75.56.66.65.57.74.45.8.33.84.2.88.07h63.48v.96h-63.52l-1-.08-.98-.24-.94-.4-.87-.52-.78-.66-.66-.77-.53-.86-.4-.94-.23-1-.08-.98v-388l-.06-.88-.2-.85-.34-.8-.45-.75-.56-.66-.65-.57-.74-.45-.8-.33-.84-.2-.88-.08h-317.6v-.94h317.64z" stroke="#3a414a" stroke-width=".05" fill="#3a414a"/><path d="M910 300.48h-.5v-.96h.5z" fill="#3a414a"/><path stroke="#3a414a" stroke-width=".05" fill="#3a414a"/><path d="M515.88-95.36L501.62-100l14.26-4.64z" fill="#3a414a"/><path d="M516.36-94.7l-16.28-5.3 16.28-5.3zm-13.2-5.3l12.25 3.98v-7.96z" stroke="#3a414a" stroke-width=".05" fill="#3a414a"/><path d="M1020-54a6 6 0 0 1 6-6h228a6 6 0 0 1 6 6v48a6 6 0 0 1-6 6h-228a6 6 0 0 1-6-6z" fill="none"/><use xlink:href="#m" transform="matrix(1,0,0,1,1020,-60) translate(12.623456790123441 34.44444444444444)"/><use xlink:href="#n" transform="matrix(1,0,0,1,1020,-60) translate(88.73456790123456 34.44444444444444)"/><use xlink:href="#o" transform="matrix(1,0,0,1,1020,-60) translate(187.9320987654321 34.44444444444444)"/><path d="M640-54a6 6 0 0 1 6-6h228a6 6 0 0 1 6 6v48a6 6 0 0 1-6 6H646a6 6 0 0 1-6-6z" fill="none"/><g><use xlink:href="#p" transform="matrix(1,0,0,1,640,-60) translate(22.283950617283963 34.44444444444444)"/><use xlink:href="#q" transform="matrix(1,0,0,1,640,-60) translate(66.0493827160494 34.44444444444444)"/><use xlink:href="#r" transform="matrix(1,0,0,1,640,-60) translate(161.04938271604937 34.44444444444444)"/></g><path d="M300 366a6 6 0 0 1 6-6h228a6 6 0 0 1 6 6v48a6 6 0 0 1-6 6H306a6 6 0 0 1-6-6z" fill="none"/><g><use xlink:href="#s" transform="matrix(1,0,0,1,300,360) translate(75.27777777777777 34.44444444444444)"/><use xlink:href="#t" transform="matrix(1,0,0,1,300,360) translate(127.68518518518518 34.44444444444444)"/></g><path d="M1380 366a6 6 0 0 1 6-6h228a6 6 0 0 1 6 6v48a6 6 0 0 1-6 6h-228a6 6 0 0 1-6-6z" fill="none"/><g><use xlink:href="#u" transform="matrix(1,0,0,1,1380,360) translate(50.70987654320987 34.44444444444444)"/><use xlink:href="#v" transform="matrix(1,0,0,1,1380,360) translate(87.0679012345679 34.44444444444444)"/></g><defs><path d="M256-236v10l-26 4L135 5h-9L31-222l-27-4v-10h95v10l-31 4 71 174 71-174-31-4v-10h77" id="w"/><path d="M75-108c48 3 76-12 76-58s-28-57-76-54v112zm111-58c-1 60-46 78-111 74v78l37 5v9H13v-9l28-5v-208l-31-4v-10c81 1 178-14 176 70" id="x"/><path d="M52-115c0 93 80 130 150 87l7-35h11l-1 55c-23 7-52 12-83 12C60 4 19-37 15-115c-5-113 97-141 201-114l1 51h-12l-5-30c-15-9-39-16-62-16-66 0-86 41-86 109" id="y"/><g id="a"><use transform="matrix(0.06172839506172839,0,0,0.06172839506172839,0,0)" xlink:href="#w"/><use transform="matrix(0.06172839506172839,0,0,0.06172839506172839,15.987654320987653,0)" xlink:href="#x"/><use transform="matrix(0.06172839506172839,0,0,0.06172839506172839,28.333333333333332,0)" xlink:href="#y"/></g><path d="M124-13C89 8 26 15 26-45v-108c-8-3-24 2-21-12h50v118c-3 37 42 32 69 25v-131l-25-4v-8h54v153c8 3 24-2 21 12h-48" id="z"/><path d="M53-14c58 12 82-15 82-73 0-52-35-77-82-58v131zM89 4C64 4 42-2 24-9v-229l-24-4v-8h53l-1 94c48-33 114-4 114 69 0 57-23 91-77 91" id="A"/><path d="M65-12l28 4v8H7v-8l28-4v-226l-28-4v-8h58v238" id="B"/><path d="M47-200c-23 0-25-39 0-38 13 0 18 7 20 19-1 11-8 19-20 19zM65-12l28 4v8H8v-8l28-4v-141l-24-4v-8h53v153" id="C"/><path d="M45-84c0 64 52 80 104 63 1 25-30 25-55 25-56 0-80-32-80-88 0-76 62-98 131-80v46h-10c-5-15-4-31-23-35-47-10-67 21-67 69" id="D"/><g id="b"><use transform="matrix(0.06172839506172839,0,0,0.06172839506172839,0,0)" xlink:href="#x"/><use transform="matrix(0.06172839506172839,0,0,0.06172839506172839,12.345679012345679,0)" xlink:href="#z"/><use transform="matrix(0.06172839506172839,0,0,0.06172839506172839,23.45679012345679,0)" xlink:href="#A"/><use transform="matrix(0.06172839506172839,0,0,0.06172839506172839,34.5679012345679,0)" xlink:href="#B"/><use transform="matrix(0.06172839506172839,0,0,0.06172839506172839,40.74074074074074,0)" xlink:href="#C"/><use transform="matrix(0.06172839506172839,0,0,0.06172839506172839,46.91358024691358,0)" xlink:href="#D"/></g><path d="M41-130c7 48 86 23 86 84 0 56-69 57-112 41v-40c20 0 9 29 31 31 35 19 77-26 41-50-27-18-72-13-72-59 0-50 58-52 100-41v36c-19 1-8-25-28-25-21-7-50-1-46 23" id="E"/><path d="M125-118c4-37-41-34-68-26v132l23 4v8H8C5-13 21-9 28-12v-141c-7-3-23 1-20-12h47l2 13c31-23 98-29 98 31v109c7 3 23-1 20 12h-72v-8l22-4v-106" id="F"/><path d="M84-170c49 0 66 33 63 87H46c-8 60 38 80 95 63v10C128-2 108 4 88 4 34 4 14-29 14-84c-1-54 22-86 70-86zm33 73c12-57-57-82-69-24-1 7-2 15-2 24h71" id="G"/><path d="M54-38c-1 25 24 26 44 20v12C71 10 25 9 25-35v-115H4c-2-14 14-10 21-15l18-38h11v38h38v15H54v112" id="H"/><g id="c"><use transform="matrix(0.06172839506172839,0,0,0.06172839506172839,0,0)" xlink:href="#E"/><use transform="matrix(0.06172839506172839,0,0,0.06172839506172839,8.641975308641975,0)" xlink:href="#z"/><use transform="matrix(0.06172839506172839,0,0,0.06172839506172839,19.753086419753085,0)" xlink:href="#A"/><use transform="matrix(0.06172839506172839,0,0,0.06172839506172839,30.864197530864196,0)" xlink:href="#F"/><use transform="matrix(0.06172839506172839,0,0,0.06172839506172839,41.9753086419753,0)" xlink:href="#G"/><use transform="matrix(0.06172839506172839,0,0,0.06172839506172839,51.79012345679012,0)" xlink:href="#H"/></g><path d="M81-9v9H4v-9l26-5 81-224h33l83 224 30 5v9h-99v-9l31-5-23-68H73L49-14zm38-203L78-98h82" id="I"/><path d="M126-118c4-37-42-32-68-25v131l24 4v8H8C5-13 21-9 28-12v-141c-7-3-23 1-20-12h48l1 13c22-15 77-30 92 2 32-22 104-36 104 29v109c8 3 24-2 21 12h-75v-8l25-4v-106c3-39-45-31-72-24 7 37 1 88 3 130l25 4v8h-78v-8l24-4v-106" id="J"/><path d="M32-163c41-10 102-14 102 39v112c8 3 24-2 21 12h-45l-4-17C83 13 3 13 13-46c-2-50 45-50 92-51 4-36-5-70-42-56-6 2-12 4-16 6-4 7 0 23-15 20v-36zM42-47c0 41 41 33 63 22v-59c-34 1-63-1-63 37" id="K"/><path d="M10 0v-8l90-143c-23 2-54-4-70 6-5 8 1 26-14 24v-44h122v8L47-14c29-2 65 3 86-8l9-35h8l-5 57H10" id="L"/><path d="M90-170c52 0 76 32 76 87 0 54-24 87-77 87-51 0-75-34-75-87 0-54 24-87 76-87zM89-10c39 0 46-35 46-73 0-39-7-73-46-73-39 1-44 34-44 73s6 72 44 73" id="M"/><g id="d"><use transform="matrix(0.06172839506172839,0,0,0.06172839506172839,0,0)" xlink:href="#I"/><use transform="matrix(0.06172839506172839,0,0,0.06172839506172839,15.987654320987653,0)" xlink:href="#J"/><use transform="matrix(0.06172839506172839,0,0,0.06172839506172839,33.2716049382716,0)" xlink:href="#K"/><use transform="matrix(0.06172839506172839,0,0,0.06172839506172839,43.08641975308642,0)" xlink:href="#L"/><use transform="matrix(0.06172839506172839,0,0,0.06172839506172839,52.901234567901234,0)" xlink:href="#M"/><use transform="matrix(0.06172839506172839,0,0,0.06172839506172839,64.01234567901234,0)" xlink:href="#F"/></g><path d="M10-9l31-5v-208l-31-4v-10h177v57h-11l-6-38c-28-4-63-3-95-3v92h63l6-28h11v73h-11l-6-29H75v96l105-3 10-43h12l-3 62H10v-9" id="N"/><path d="M199-173c-1 36-21 56-49 65l64 94 26 5v9h-57l-66-103H75v89l35 5v9H13v-9l28-5v-208l-31-4v-10c80 4 190-20 189 63zM75-119c50 2 89-1 89-51 0-49-39-52-89-50v101" id="O"/><g id="e"><use transform="matrix(0.06172839506172839,0,0,0.06172839506172839,0,0)" xlink:href="#N"/><use transform="matrix(0.06172839506172839,0,0,0.06172839506172839,13.518518518518517,0)" xlink:href="#y"/><use transform="matrix(0.06172839506172839,0,0,0.06172839506172839,28.33333333333333,0)" xlink:href="#O"/></g><g id="f"><use transform="matrix(0.06172839506172839,0,0,0.06172839506172839,0,0)" xlink:href="#I"/><use transform="matrix(0.06172839506172839,0,0,0.06172839506172839,15.987654320987653,0)" xlink:href="#J"/><use transform="matrix(0.06172839506172839,0,0,0.06172839506172839,33.2716049382716,0)" xlink:href="#K"/><use transform="matrix(0.06172839506172839,0,0,0.06172839506172839,43.08641975308642,0)" xlink:href="#L"/><use transform="matrix(0.06172839506172839,0,0,0.06172839506172839,52.901234567901234,0)" xlink:href="#M"/><use transform="matrix(0.06172839506172839,0,0,0.06172839506172839,64.01234567901234,0)" xlink:href="#F"/></g><path d="M164-154L98 4H85L17-153c-7-3-20 0-17-12h77v8l-26 4L99-38l46-115-26-4v-8h61v8" id="P"/><path d="M75-131c50 2 93 3 93-48 0-46-48-41-93-41v89zm0 115c55 4 111 6 111-51 0-53-58-48-111-48v99zm148-52C223 24 102-3 10 0v-9l31-5v-208l-31-4v-10c77 6 193-24 194 56 0 33-20 48-48 54 36 5 67 20 67 58" id="Q"/><path d="M57-145c16-10 35-24 60-25v45c-19 1-8-30-40-17l-20 6v124l29 4v8H7v-8l21-4v-141c-8-3-24 2-21-12h48" id="R"/><path d="M13-81c0-71 46-101 114-85l-1-72-28-4v-8h57v238c8 3 24-2 21 12h-47l-2-12C80 23 13-1 13-81zm77-74c-37 1-44 33-45 74 0 38 9 66 45 66 14 0 27-3 36-7v-130c-10-1-24-3-36-3" id="S"/><path d="M141-152c28 39 5 97-54 97-9 0-20-2-27-3L49-35c29 22 130-14 124 52-4 45-38 57-88 61C21 83-8 26 45-2 33-6 22-15 21-31l28-31c-19-9-28-26-28-51-2-51 53-65 100-52l38-20 7 8zM85 64c35 0 61-11 61-42 0-35-57-17-89-21-9 8-16 19-17 34 0 25 19 29 45 29zM52-113c1 26 7 46 35 44 28-1 34-16 35-44 0-26-6-43-34-43s-36 17-36 43" id="T"/><g id="g"><use transform="matrix(0.06172839506172839,0,0,0.06172839506172839,0,0)" xlink:href="#N"/><use transform="matrix(0.06172839506172839,0,0,0.06172839506172839,13.518518518518517,0)" xlink:href="#P"/><use transform="matrix(0.06172839506172839,0,0,0.06172839506172839,24.629629629629626,0)" xlink:href="#G"/><use transform="matrix(0.06172839506172839,0,0,0.06172839506172839,34.44444444444444,0)" xlink:href="#F"/><use transform="matrix(0.06172839506172839,0,0,0.06172839506172839,45.55555555555556,0)" xlink:href="#H"/><use transform="matrix(0.06172839506172839,0,0,0.06172839506172839,51.7283950617284,0)" xlink:href="#Q"/><use transform="matrix(0.06172839506172839,0,0,0.06172839506172839,66.54320987654322,0)" xlink:href="#R"/><use transform="matrix(0.06172839506172839,0,0,0.06172839506172839,73.8888888888889,0)" xlink:href="#C"/><use transform="matrix(0.06172839506172839,0,0,0.06172839506172839,80.06172839506173,0)" xlink:href="#S"/><use transform="matrix(0.06172839506172839,0,0,0.06172839506172839,91.17283950617285,0)" xlink:href="#T"/><use transform="matrix(0.06172839506172839,0,0,0.06172839506172839,102.28395061728396,0)" xlink:href="#G"/></g><path d="M319-222L242 5h-10l-61-162L108 5h-9L21-222l-21-4v-10h90v10l-34 4 56 166 63-163h8l61 163 54-166-37-4v-10h78v10" id="U"/><path d="M178-68c0 79-95 82-154 59v-54h12c1 35 22 52 60 52 50 0 69-58 33-82-39-24-105-21-105-85 0-67 86-66 142-53v49h-12l-6-29c-31-27-121-7-89 42 28 43 119 24 119 101" id="V"/><g id="h"><use transform="matrix(0.06172839506172839,0,0,0.06172839506172839,0,0)" xlink:href="#I"/><use transform="matrix(0.06172839506172839,0,0,0.06172839506172839,14.19753086419753,0)" xlink:href="#U"/><use transform="matrix(0.06172839506172839,0,0,0.06172839506172839,35.123456790123456,0)" xlink:href="#V"/></g><path d="M75-106v92l39 5v9H13v-9l28-5v-208l-31-4v-10h177v57h-11l-6-38c-28-4-63-3-95-3v98h69l5-28h11v73h-11l-5-29H75" id="W"/><g id="i"><use transform="matrix(0.06172839506172839,0,0,0.06172839506172839,0,0)" xlink:href="#W"/><use transform="matrix(0.06172839506172839,0,0,0.06172839506172839,12.345679012345679,0)" xlink:href="#K"/><use transform="matrix(0.06172839506172839,0,0,0.06172839506172839,22.160493827160494,0)" xlink:href="#R"/><use transform="matrix(0.06172839506172839,0,0,0.06172839506172839,29.074074074074076,0)" xlink:href="#T"/><use transform="matrix(0.06172839506172839,0,0,0.06172839506172839,40.18518518518519,0)" xlink:href="#K"/><use transform="matrix(0.06172839506172839,0,0,0.06172839506172839,50.00000000000001,0)" xlink:href="#H"/><use transform="matrix(0.06172839506172839,0,0,0.06172839506172839,56.17283950617285,0)" xlink:href="#G"/></g><path d="M126-119c3-38-42-31-69-25v132l23 4v8H7v-8l21-4v-226l-24-4v-8h53l-1 98c31-22 99-31 99 31v109c7 3 23-1 20 12h-71v-8l22-4v-107" id="X"/><g id="j"><use transform="matrix(0.06172839506172839,0,0,0.06172839506172839,0,0)" xlink:href="#y"/><use transform="matrix(0.06172839506172839,0,0,0.06172839506172839,14.814814814814813,0)" xlink:href="#B"/><use transform="matrix(0.06172839506172839,0,0,0.06172839506172839,20.98765432098765,0)" xlink:href="#M"/><use transform="matrix(0.06172839506172839,0,0,0.06172839506172839,32.09876543209876,0)" xlink:href="#z"/><use transform="matrix(0.06172839506172839,0,0,0.06172839506172839,43.20987654320987,0)" xlink:href="#S"/><use transform="matrix(0.06172839506172839,0,0,0.06172839506172839,54.32098765432099,0)" xlink:href="#U"/><use transform="matrix(0.06172839506172839,0,0,0.06172839506172839,73.45679012345678,0)" xlink:href="#K"/><use transform="matrix(0.06172839506172839,0,0,0.06172839506172839,83.2716049382716,0)" xlink:href="#H"/><use transform="matrix(0.06172839506172839,0,0,0.06172839506172839,89.44444444444443,0)" xlink:href="#D"/><use transform="matrix(0.06172839506172839,0,0,0.06172839506172839,99.25925925925924,0)" xlink:href="#X"/></g><path d="M130-224c-62 0-78 43-78 106 0 64 16 108 78 108s78-44 78-108c0-63-16-106-78-106zM145 3C61 9 15-34 15-118c0-80 37-120 115-120 77 0 115 42 115 120 1 59-21 95-62 112 19 19 30 53 71 46v12c-30 12-67 2-84-19" id="Y"/><path d="M111-226l-36 4v207c33-1 73 2 101-4l11-49h11l-3 68H10v-9l31-5v-208l-31-4v-10h101v10" id="Z"/><g id="k"><use transform="matrix(0.06172839506172839,0,0,0.06172839506172839,0,0)" xlink:href="#x"/><use transform="matrix(0.06172839506172839,0,0,0.06172839506172839,12.345679012345679,0)" xlink:href="#M"/><use transform="matrix(0.06172839506172839,0,0,0.06172839506172839,23.45679012345679,0)" xlink:href="#E"/><use transform="matrix(0.06172839506172839,0,0,0.06172839506172839,32.098765432098766,0)" xlink:href="#H"/><use transform="matrix(0.06172839506172839,0,0,0.06172839506172839,38.27160493827161,0)" xlink:href="#T"/><use transform="matrix(0.06172839506172839,0,0,0.06172839506172839,49.38271604938272,0)" xlink:href="#R"/><use transform="matrix(0.06172839506172839,0,0,0.06172839506172839,56.7283950617284,0)" xlink:href="#G"/><use transform="matrix(0.06172839506172839,0,0,0.06172839506172839,66.54320987654322,0)" xlink:href="#V"/><use transform="matrix(0.06172839506172839,0,0,0.06172839506172839,78.8888888888889,0)" xlink:href="#Y"/><use transform="matrix(0.06172839506172839,0,0,0.06172839506172839,94.87654320987656,0)" xlink:href="#Z"/></g><g id="l"><use transform="matrix(0.06172839506172839,0,0,0.06172839506172839,0,0)" xlink:href="#V"/><use transform="matrix(0.06172839506172839,0,0,0.06172839506172839,12.345679012345679,0)" xlink:href="#G"/><use transform="matrix(0.06172839506172839,0,0,0.06172839506172839,22.160493827160494,0)" xlink:href="#R"/><use transform="matrix(0.06172839506172839,0,0,0.06172839506172839,29.50617283950617,0)" xlink:href="#P"/><use transform="matrix(0.06172839506172839,0,0,0.06172839506172839,40.61728395061728,0)" xlink:href="#G"/><use transform="matrix(0.06172839506172839,0,0,0.06172839506172839,50.432098765432094,0)" xlink:href="#R"/></g><path d="M54 0v-13l38-5v-199l-66 3-4 44H6v-66h229v66h-17l-4-44c-17-2-44-3-67-3v199l38 5V0H54" id="aa"/><path d="M132-132c-21 0-37 9-50 16v100l26 4V0H10v-12l21-4v-133l-21-5v-11h69l2 34c17-18 35-41 71-40v61c-17 3-14-14-20-22" id="ab"/><path d="M77-16l18 4V0H8v-12l18-4v-133l-17-5v-11h68v149zM51-196c-16 0-27-10-27-27s10-27 27-27 27 11 27 27c0 17-10 27-27 27" id="ac"/><path d="M9 41c2-18 18-26 32-33C29 1 16-9 16-28l29-33c-21-9-31-25-31-51-2-56 61-65 111-53l39-20c13 12-9 24-14 36 35 54-17 114-90 92-17 34 27 28 56 28 36-1 61 12 60 46-2 46-39 62-91 62-38 0-71-6-76-38zm35-3c6 35 97 29 94-9-2-28-50-14-78-17-8 7-15 14-16 26zm20-150c0 22 4 40 23 40 20 0 24-17 24-40 0-24-4-40-24-40-19 0-23 17-23 40" id="ad"/><path d="M12-83c0-55 22-85 75-86 52-1 66 33 63 88H64c-1 37 6 64 44 63 14 0 28-4 39-6 3 28-28 25-55 27-57 4-80-31-80-86zm90-17c2-26 0-63-27-48-10 9-11 28-11 48h38" id="ae"/><g id="m"><use transform="matrix(0.06172839506172839,0,0,0.06172839506172839,0,0)" xlink:href="#aa"/><use transform="matrix(0.06172839506172839,0,0,0.06172839506172839,13.148148148148147,0)" xlink:href="#ab"/><use transform="matrix(0.06172839506172839,0,0,0.06172839506172839,22.962962962962962,0)" xlink:href="#ac"/><use transform="matrix(0.06172839506172839,0,0,0.06172839506172839,29.1358024691358,0)" xlink:href="#ad"/><use transform="matrix(0.06172839506172839,0,0,0.06172839506172839,40.24691358024691,0)" xlink:href="#ad"/><use transform="matrix(0.06172839506172839,0,0,0.06172839506172839,51.358024691358025,0)" xlink:href="#ae"/><use transform="matrix(0.06172839506172839,0,0,0.06172839506172839,61.17283950617284,0)" xlink:href="#ab"/></g><path d="M102-142c-14-17-68-15-54 18 24 26 83 17 83 72 0 62-72 62-120 47v-45h12c4 23 16 37 43 37 35 0 39-37 9-46-31-9-65-19-64-61 0-52 59-55 108-45v43h-11" id="af"/><path d="M109-18c15 0 31-2 42-6v14c-11 9-31 13-51 13-59 0-86-28-88-86-3-75 66-101 135-80v48h-13c-3-20-7-40-34-37-51 7-55 138 9 134" id="ag"/><path d="M127-114c3-31-26-38-50-25v123l15 4V0H10v-12l16-4v-218l-17-4v-12h68l-1 99c31-23 102-32 102 30v105l17 4V0h-82v-12l14-4v-98" id="ah"/><path d="M15-82c-4-69 47-101 113-83l-1-69-17-4v-12h68v234l18 4V0h-63l-4-9C77 23 5-9 15-82zm112-66c-43-16-64 17-61 65 2 33 3 67 32 67 12 0 22-3 29-8v-124" id="ai"/><path d="M73-51c-3 31 27 38 51 25v-123l-16-5v-11h66v149l17 4V0h-65l-2-14C94 9 22 18 22-44v-105l-17-5v-11h68v114" id="aj"/><path d="M76-16l18 4V0H7v-12l18-4v-218l-17-4v-12h68v234" id="ak"/><g id="n"><use transform="matrix(0.06172839506172839,0,0,0.06172839506172839,0,0)" xlink:href="#af"/><use transform="matrix(0.06172839506172839,0,0,0.06172839506172839,8.641975308641975,0)" xlink:href="#ag"/><use transform="matrix(0.06172839506172839,0,0,0.06172839506172839,18.45679012345679,0)" xlink:href="#ah"/><use transform="matrix(0.06172839506172839,0,0,0.06172839506172839,30.80246913580247,0)" xlink:href="#ae"/><use transform="matrix(0.06172839506172839,0,0,0.06172839506172839,40.617283950617285,0)" xlink:href="#ai"/><use transform="matrix(0.06172839506172839,0,0,0.06172839506172839,52.96296296296296,0)" xlink:href="#aj"/><use transform="matrix(0.06172839506172839,0,0,0.06172839506172839,65.30864197530865,0)" xlink:href="#ak"/><use transform="matrix(0.06172839506172839,0,0,0.06172839506172839,71.48148148148148,0)" xlink:href="#ae"/><use transform="matrix(0.06172839506172839,0,0,0.06172839506172839,81.29629629629629,0)" xlink:href="#ai"/></g><path d="M78-41c-2 24 21 26 40 20C122 3 98 2 77 4 5 10 32-84 27-147H6v-11l25-7 21-38h26v38h35v18H78v106" id="al"/><path d="M31-163c51-5 127-20 127 40v107l17 4V0h-61l-4-13C82 13 12 12 12-46c0-51 46-52 95-53 9-45-22-69-57-44l-7 20H31v-40zM62-47c0 30 26 34 45 23v-59c-28 0-45 6-45 36" id="am"/><path d="M77-79l64-71-17-4v-11h63v11c-32 3-40 30-59 46l57 92 15 4V0h-80c-2-11 3-15 10-16L97-74 77-60v44l16 4V0H10v-12l16-4v-218l-17-4v-12h68v171" id="an"/><g id="o"><use transform="matrix(0.06172839506172839,0,0,0.06172839506172839,0,0)" xlink:href="#al"/><use transform="matrix(0.06172839506172839,0,0,0.06172839506172839,7.345679012345679,0)" xlink:href="#am"/><use transform="matrix(0.06172839506172839,0,0,0.06172839506172839,18.45679012345679,0)" xlink:href="#af"/><use transform="matrix(0.06172839506172839,0,0,0.06172839506172839,27.098765432098766,0)" xlink:href="#an"/></g><path d="M92-112c43 4 61-13 61-54s-18-54-61-50v104zm118-54c0 63-50 78-118 74v74l39 5V0H8v-13l28-5v-200l-30-5v-13c88 3 205-20 204 70" id="ao"/><g id="p"><use transform="matrix(0.06172839506172839,0,0,0.06172839506172839,0,0)" xlink:href="#ao"/><use transform="matrix(0.06172839506172839,0,0,0.06172839506172839,13.518518518518517,0)" xlink:href="#aj"/><use transform="matrix(0.06172839506172839,0,0,0.06172839506172839,25.864197530864196,0)" xlink:href="#ak"/><use transform="matrix(0.06172839506172839,0,0,0.06172839506172839,32.03703703703704,0)" xlink:href="#ak"/></g><path d="M90-170c54-1 76 32 76 87 1 56-23 87-77 87-53 0-75-32-75-87s23-86 76-87zM89-14c28-2 26-38 26-69s3-69-26-69c-27 0-24 39-24 69s-3 66 24 69" id="ap"/><path d="M127-114c3-31-26-38-50-25v123l15 4V0H10v-12l16-4v-133l-16-5v-11h64l2 14c31-23 102-32 102 30v105l17 4V0h-82v-12l14-4v-98" id="aq"/><g id="q"><use transform="matrix(0.06172839506172839,0,0,0.06172839506172839,0,0)" xlink:href="#ag"/><use transform="matrix(0.06172839506172839,0,0,0.06172839506172839,9.814814814814815,0)" xlink:href="#ap"/><use transform="matrix(0.06172839506172839,0,0,0.06172839506172839,20.925925925925924,0)" xlink:href="#aq"/><use transform="matrix(0.06172839506172839,0,0,0.06172839506172839,33.2716049382716,0)" xlink:href="#al"/><use transform="matrix(0.06172839506172839,0,0,0.06172839506172839,40.61728395061728,0)" xlink:href="#am"/><use transform="matrix(0.06172839506172839,0,0,0.06172839506172839,51.72839506172839,0)" xlink:href="#ac"/><use transform="matrix(0.06172839506172839,0,0,0.06172839506172839,57.901234567901234,0)" xlink:href="#aq"/><use transform="matrix(0.06172839506172839,0,0,0.06172839506172839,70.24691358024691,0)" xlink:href="#ae"/><use transform="matrix(0.06172839506172839,0,0,0.06172839506172839,80.06172839506172,0)" xlink:href="#ab"/></g><path d="M126-114c3-31-27-37-49-25v123l15 4V0H10v-12l16-4v-133l-16-5v-11h64l2 14c24-16 81-33 96 3 30-24 105-39 105 27v105l17 4V0h-82v-12l14-4v-98c4-33-27-37-51-24 5 35 0 82 2 122l17 4V0h-83v-12l15-4v-98" id="ar"/><g id="r"><use transform="matrix(0.06172839506172839,0,0,0.06172839506172839,0,0)" xlink:href="#ac"/><use transform="matrix(0.06172839506172839,0,0,0.06172839506172839,6.172839506172839,0)" xlink:href="#ar"/><use transform="matrix(0.06172839506172839,0,0,0.06172839506172839,24.629629629629626,0)" xlink:href="#am"/><use transform="matrix(0.06172839506172839,0,0,0.06172839506172839,35.74074074074073,0)" xlink:href="#ad"/><use transform="matrix(0.06172839506172839,0,0,0.06172839506172839,46.85185185185185,0)" xlink:href="#ae"/></g><path d="M185-72C185 13 82 14 19-9v-63h16c2 37 21 58 61 58 46 0 69-51 31-71-42-23-106-23-106-90 0-69 87-70 148-56v56h-16l-7-32c-26-25-110-13-82 35 39 34 121 26 121 100" id="as"/><g id="s"><use transform="matrix(0.06172839506172839,0,0,0.06172839506172839,0,0)" xlink:href="#as"/><use transform="matrix(0.06172839506172839,0,0,0.06172839506172839,12.345679012345679,0)" xlink:href="#ae"/><use transform="matrix(0.06172839506172839,0,0,0.06172839506172839,22.160493827160494,0)" xlink:href="#aq"/><use transform="matrix(0.06172839506172839,0,0,0.06172839506172839,34.50617283950617,0)" xlink:href="#ai"/></g><g id="t"><use transform="matrix(0.06172839506172839,0,0,0.06172839506172839,0,0)" xlink:href="#ak"/><use transform="matrix(0.06172839506172839,0,0,0.06172839506172839,6.172839506172839,0)" xlink:href="#ap"/><use transform="matrix(0.06172839506172839,0,0,0.06172839506172839,17.28395061728395,0)" xlink:href="#ad"/><use transform="matrix(0.06172839506172839,0,0,0.06172839506172839,28.39506172839506,0)" xlink:href="#af"/></g><path d="M92-20c74 11 92-29 92-98 0-66-23-103-92-98v196zm150-99C242 9 136 6 6 0v-13l31-5v-200l-31-5v-13h112c81 0 124 34 124 117" id="at"/><path d="M92-134c39 3 62-4 62-44 0-37-25-40-62-38v82zm0 115c49 5 80-2 80-50 0-44-34-49-80-46v96zm138-50C230 26 101-4 6 0v-13l30-5v-200l-30-5v-13c79 7 206-26 206 54 0 33-22 49-49 56 39 3 67 18 67 57" id="au"/><g id="u"><use transform="matrix(0.06172839506172839,0,0,0.06172839506172839,0,0)" xlink:href="#at"/><use transform="matrix(0.06172839506172839,0,0,0.06172839506172839,15.987654320987653,0)" xlink:href="#au"/></g><g id="v"><use transform="matrix(0.06172839506172839,0,0,0.06172839506172839,0,0)" xlink:href="#ag"/><use transform="matrix(0.06172839506172839,0,0,0.06172839506172839,9.814814814814815,0)" xlink:href="#ap"/><use transform="matrix(0.06172839506172839,0,0,0.06172839506172839,20.925925925925924,0)" xlink:href="#aq"/><use transform="matrix(0.06172839506172839,0,0,0.06172839506172839,33.2716049382716,0)" xlink:href="#aq"/><use transform="matrix(0.06172839506172839,0,0,0.06172839506172839,45.61728395061728,0)" xlink:href="#ae"/><use transform="matrix(0.06172839506172839,0,0,0.06172839506172839,55.432098765432094,0)" xlink:href="#ag"/><use transform="matrix(0.06172839506172839,0,0,0.06172839506172839,65.24691358024691,0)" xlink:href="#al"/><use transform="matrix(0.06172839506172839,0,0,0.06172839506172839,72.5925925925926,0)" xlink:href="#ac"/><use transform="matrix(0.06172839506172839,0,0,0.06172839506172839,78.76543209876543,0)" xlink:href="#ap"/><use transform="matrix(0.06172839506172839,0,0,0.06172839506172839,89.87654320987654,0)" xlink:href="#aq"/></g></defs></g></svg>